<?xml version="1.0" encoding="utf-8"?>
<!-- Generator: Adobe Illustrator 19.0.0, SVG Export Plug-In . SVG Version: 6.00 Build 0)  -->
<svg version="1.1" id="Слой_1" xmlns="http://www.w3.org/2000/svg" xmlns:xlink="http://www.w3.org/1999/xlink" x="0px" y="0px"
	 viewBox="-180 57 38 38" style="enable-background:new -180 57 38 38;" xml:space="preserve">
<style type="text/css">
	.st0{fill:none;}
	.st1{fill:#9B9B9B;}
	.st2{fill:#FFFFFF;}
</style>
<title>icon_gps_large</title>
<desc>Created with Sketch.</desc>
<g>
	<g id="Page-1">
		<g id="icon_gps_large" transform="translate(-1.000000, -2.000000)">
			<g id="Layer_1">
				<rect id="Rectangle-path" x="-180" y="57" class="st0" width="40" height="47"/>
				<path id="Shape" class="st1" d="M-160,59c-10.5,0-19,8.5-19,19s8.5,19,19,19s19-8.5,19-19S-149.5,59-160,59L-160,59z"/>
			</g>
		</g>
	</g>
</g>
<g>
</g>
<g>
	<path class="st2" d="M-176.2,71.6L-176.2,71.6l-1.8,1l-0.3-1.1l2.3-1.2h1.2v10.4h-1.4V71.6z"/>
	<path class="st2" d="M-164.2,75.4c0,3.5-1.3,5.5-3.6,5.5c-2,0-3.4-1.9-3.4-5.3c0-3.5,1.5-5.4,3.6-5.4
		C-165.4,70.1-164.2,72-164.2,75.4z M-169.8,75.5c0,2.7,0.8,4.2,2.1,4.2c1.4,0,2.1-1.7,2.1-4.3c0-2.6-0.7-4.2-2.1-4.2
		C-168.9,71.2-169.8,72.7-169.8,75.5z"/>
	<path class="st2" d="M-155.9,75.4c0,3.5-1.3,5.5-3.6,5.5c-2,0-3.4-1.9-3.4-5.3c0-3.5,1.5-5.4,3.6-5.4
		C-157.2,70.1-155.9,72-155.9,75.4z M-161.6,75.5c0,2.7,0.8,4.2,2.1,4.2c1.4,0,2.1-1.7,2.1-4.3c0-2.6-0.7-4.2-2.1-4.2
		C-160.7,71.2-161.6,72.7-161.6,75.5z"/>
	<path class="st2" d="M-150,73.2c0,2.2-1.2,3.3-2.5,3.3c-1.3,0-2.4-1-2.4-3.1c0-2.1,1.1-3.2,2.5-3.2C-150.9,70.1-150,71.2-150,73.2z
		 M-153.8,73.3c0,1.3,0.5,2.3,1.3,2.3c0.9,0,1.3-1,1.3-2.4c0-1.3-0.4-2.3-1.3-2.3C-153.3,70.9-153.8,72-153.8,73.3z M-152.6,80.8
		l6.1-10.8h0.9l-6.1,10.8H-152.6z M-143.2,77.5c0,2.2-1.2,3.3-2.5,3.3c-1.3,0-2.4-1-2.4-3.1c0-2.1,1.1-3.3,2.5-3.3
		C-144.1,74.4-143.2,75.5-143.2,77.5z M-147,77.6c0,1.3,0.5,2.3,1.4,2.3c0.9,0,1.3-1,1.3-2.4c0-1.3-0.4-2.3-1.3-2.3
		C-146.5,75.2-147,76.3-147,77.6z"/>
</g>
</svg>
