<?xml version="1.0" encoding="utf-8"?>
<!-- Generator: Adobe Illustrator 20.1.0, SVG Export Plug-In . SVG Version: 6.00 Build 0)  -->
<svg version="1.1" id="Layer_1" xmlns="http://www.w3.org/2000/svg" xmlns:xlink="http://www.w3.org/1999/xlink" x="0px" y="0px"
	 viewBox="0 0 42.1 42.1" style="enable-background:new 0 0 42.1 42.1;" xml:space="preserve">
<style type="text/css">
	.st0{fill:#9B9B9B;}
	.st1{fill:#FFFFFF;}
</style>
<title>Vector Smart Object1</title>
<g>
	<g>
		<g>
			<path class="st0" d="M4.7,2h33c1.4,0,2.5,1.1,2.5,2.5v33c0,1.4-1.1,2.5-2.5,2.5h-33c-1.4,0-2.5-1.1-2.5-2.5v-33
				C2.1,3.1,3.2,2,4.7,2z"/>
			<path class="st0" d="M33.4,0L33.4,0c0.4,0,0.8,0.3,0.8,0.8v1.5c0,0.4-0.3,0.8-0.8,0.8s-0.8-0.4-0.8-0.9V0.8
				C32.6,0.3,32.9,0,33.4,0z"/>
			<path class="st0" d="M29.8,0L29.8,0c0.6,0,0.8,0.3,0.8,0.8v1.5c0,0.4-0.3,0.8-0.8,0.8S29,2.8,29,2.3V0.8C29.1,0.3,29.4,0,29.8,0z
				"/>
			<path class="st0" d="M26.4,0L26.4,0c0.4,0,0.8,0.3,0.8,0.8v1.5c0,0.4-0.3,0.8-0.8,0.8s-0.8-0.4-0.8-0.9V0.8
				C25.6,0.3,25.9,0,26.4,0z"/>
			<path class="st0" d="M22.8,0L22.8,0c0.6,0,0.8,0.3,0.8,0.8v1.5c0,0.4-0.3,0.8-0.8,0.8S22,2.8,22,2.3V0.8C22.1,0.3,22.4,0,22.8,0z
				"/>
			<path class="st0" d="M19.4,0L19.4,0c0.4,0,0.8,0.3,0.8,0.8v1.5c0,0.4-0.3,0.8-0.8,0.8s-0.8-0.4-0.8-0.9V0.8
				C18.6,0.3,18.9,0,19.4,0z"/>
			<path class="st0" d="M15.8,0L15.8,0c0.6,0,0.8,0.3,0.8,0.8v1.5c0,0.4-0.3,0.8-0.8,0.8S15,2.8,15,2.3V0.8C15.1,0.3,15.4,0,15.8,0z
				"/>
			<path class="st0" d="M12.5,0L12.5,0c0.4,0,0.8,0.3,0.8,0.8v1.5c0,0.4-0.3,0.8-0.8,0.8s-0.8-0.4-0.8-0.9V0.8C11.7,0.3,12,0,12.5,0
				z"/>
			<path class="st0" d="M8.8,0L8.8,0c0.5,0,0.8,0.3,0.8,0.8v1.5c0,0.4-0.3,0.8-0.8,0.8S8.2,2.7,8.2,2.2V0.8C8.2,0.3,8.5,0,8.8,0z"/>
			<path class="st0" d="M33.4,39L33.4,39c0.4,0,0.8,0.3,0.8,0.8v1.5c0,0.4-0.3,0.8-0.8,0.8s-0.8-0.4-0.8-0.9v-1.5
				C32.6,39.3,32.9,39,33.4,39z"/>
			<path class="st0" d="M29.8,39L29.8,39c0.4,0,0.8,0.3,0.8,0.8v1.5c0,0.4-0.3,0.8-0.8,0.8S29,41.8,29,41.3v-1.5
				C29.1,39.3,29.4,39,29.8,39z"/>
			<path class="st0" d="M26.4,39L26.4,39c0.4,0,0.8,0.3,0.8,0.8v1.5c0,0.4-0.3,0.8-0.8,0.8s-0.8-0.4-0.8-0.9v-1.5
				C25.6,39.3,25.9,39,26.4,39z"/>
			<path class="st0" d="M22.8,39L22.8,39c0.4,0,0.8,0.3,0.8,0.8v1.5c0,0.4-0.3,0.8-0.8,0.8S22,41.8,22,41.3v-1.5
				C22.1,39.3,22.4,39,22.8,39z"/>
			<path class="st0" d="M19.4,39L19.4,39c0.4,0,0.8,0.3,0.8,0.8v1.5c0,0.4-0.3,0.8-0.8,0.8s-0.8-0.4-0.8-0.9v-1.5
				C18.6,39.3,18.9,39,19.4,39z"/>
			<path class="st0" d="M15.8,39L15.8,39c0.4,0,0.8,0.3,0.8,0.8v1.5c0,0.4-0.3,0.8-0.8,0.8S15,41.8,15,41.3v-1.5
				C15.1,39.3,15.4,39,15.8,39z"/>
			<path class="st0" d="M12.5,39L12.5,39c0.4,0,0.8,0.3,0.8,0.8v1.5c0,0.4-0.3,0.8-0.8,0.8s-0.8-0.4-0.8-0.9v-1.5
				C11.7,39.3,12,39,12.5,39z"/>
			<path class="st0" d="M8.8,39L8.8,39c0.4,0,0.8,0.3,0.8,0.8v1.5c0,0.4-0.3,0.8-0.8,0.8S8,41.8,8,41.3v-1.5C8.2,39.3,8.5,39,8.8,39
				z"/>
			<path class="st0" d="M42.1,8.8L42.1,8.8c0,0.4-0.3,0.8-0.8,0.8h-1.5c-0.4,0-0.8-0.3-0.8-0.8C39,8.3,39.3,8,39.8,8h1.5
				C41.8,8,42.1,8.3,42.1,8.8z"/>
			<path class="st0" d="M42.1,12.2L42.1,12.2c0,0.4-0.3,0.8-0.8,0.8h-1.5c-0.4,0-0.8-0.3-0.8-0.8s0.3-0.8,0.8-0.8h1.5
				C41.8,11.5,42.1,11.8,42.1,12.2z"/>
			<path class="st0" d="M42.1,15.8L42.1,15.8c0,0.4-0.3,0.8-0.8,0.8h-1.5c-0.4,0-0.8-0.3-0.8-0.8s0.3-0.8,0.8-0.8h1.5
				C41.8,15,42.1,15.3,42.1,15.8z"/>
			<path class="st0" d="M42.1,19.2L42.1,19.2c0,0.4-0.3,0.8-0.8,0.8h-1.5c-0.4,0-0.8-0.3-0.8-0.8s0.3-0.8,0.8-0.8h1.5
				C41.8,18.5,42.1,18.8,42.1,19.2z"/>
			<path class="st0" d="M42.1,22.8L42.1,22.8c0,0.4-0.3,0.8-0.8,0.8h-1.5c-0.4,0-0.8-0.3-0.8-0.8s0.3-0.8,0.8-0.8h1.5
				C41.8,22,42.1,22.3,42.1,22.8z"/>
			<path class="st0" d="M42.1,26.2L42.1,26.2c0,0.4-0.3,0.8-0.8,0.8h-1.5c-0.4,0-0.8-0.3-0.8-0.8s0.3-0.8,0.8-0.8h1.5
				C41.8,25.5,42.1,25.8,42.1,26.2z"/>
			<path class="st0" d="M42.1,29.8L42.1,29.8c0,0.4-0.3,0.8-0.8,0.8h-1.5c-0.4,0-0.8-0.3-0.8-0.8s0.3-0.8,0.8-0.8h1.5
				C41.8,29,42.1,29.3,42.1,29.8z"/>
			<path class="st0" d="M42.1,33.2L42.1,33.2c0,0.4-0.3,0.8-0.8,0.8h-1.5c-0.4,0-0.8-0.3-0.8-0.8s0.3-0.8,0.8-0.8h1.5
				C41.8,32.5,42.1,32.8,42.1,33.2z"/>
			<path class="st0" d="M3.2,8.8L3.2,8.8c0,0.4-0.3,0.8-0.8,0.8H0.8C0.4,9.6,0,9.3,0,8.8C0,8.3,0.4,8,0.8,8h1.5
				C2.8,8,3.2,8.3,3.2,8.8z"/>
			<path class="st0" d="M3.2,12.2L3.2,12.2c0,0.4-0.3,0.8-0.8,0.8H0.8C0.4,13,0,12.7,0,12.2s0.3-0.8,0.8-0.8h1.5
				C2.8,11.5,3.2,11.8,3.2,12.2z"/>
			<path class="st0" d="M3.2,15.8L3.2,15.8c0,0.4-0.3,0.8-0.8,0.8H0.8c-0.4,0-0.8-0.3-0.8-0.8S0.4,15,0.8,15h1.5
				C2.8,15,3.2,15.3,3.2,15.8z"/>
			<path class="st0" d="M3.2,19.2L3.2,19.2c0,0.4-0.3,0.8-0.8,0.8H0.8C0.4,20,0,19.7,0,19.2s0.3-0.8,0.8-0.8h1.5
				C2.8,18.5,3.2,18.8,3.2,19.2z"/>
			<path class="st0" d="M3.2,22.8L3.2,22.8c0,0.4-0.3,0.8-0.8,0.8H0.8c-0.4,0-0.8-0.3-0.8-0.8S0.4,22,0.8,22h1.5
				C2.8,22,3.2,22.3,3.2,22.8z"/>
			<path class="st0" d="M3.2,26.2L3.2,26.2c0,0.4-0.3,0.8-0.8,0.8H0.8C0.4,27,0,26.7,0,26.2s0.3-0.8,0.8-0.8h1.5
				C2.8,25.5,3.2,25.8,3.2,26.2z"/>
			<path class="st0" d="M3.2,29.8L3.2,29.8c0,0.4-0.3,0.8-0.8,0.8H0.8c-0.4,0-0.8-0.3-0.8-0.8S0.4,29,0.8,29h1.5
				C2.8,29,3.2,29.3,3.2,29.8z"/>
			<path class="st0" d="M3.2,33.2L3.2,33.2c0,0.4-0.3,0.8-0.8,0.8H0.8C0.4,34,0,33.7,0,33.2s0.3-0.8,0.8-0.8h1.5
				C2.8,32.5,3.2,32.8,3.2,33.2z"/>
		</g>
	</g>
	<g>
		<path class="st1" d="M17.8,23.8v1H14v8.4h-1.2v-9.4H17.8z"/>
		<path class="st1" d="M23.8,23.8v1H20v8.4h-1.2v-9.4H23.8z"/>
		<path class="st1" d="M25.1,26.4v5.8h3.1v-5.8h1.2v5.9h0.7L30,35.4h-1l-0.1-2.2h-5.2v-6.8H25.1z"/>
	</g>
	<g>
		<path class="st1" d="M10.9,20v-1l1.2-1.2c3-2.8,4.3-4.4,4.4-6.1c0-1.2-0.6-2.3-2.3-2.3c-1.1,0-1.9,0.5-2.5,1l-0.5-1.1
			c0.8-0.7,2-1.2,3.3-1.2c2.5,0,3.6,1.7,3.6,3.4c0,2.2-1.6,3.9-4,6.3l-0.9,0.9v0h5.3V20H10.9z"/>
		<path class="st1" d="M19.6,22.2c0.4-1.1,0.9-3,1.1-4.3l1.8-0.2c-0.4,1.5-1.2,3.5-1.7,4.4L19.6,22.2z"/>
		<path class="st1" d="M31.6,14c0,4-1.5,6.2-4.1,6.2c-2.3,0-3.8-2.1-3.9-6c0-3.9,1.7-6.1,4.1-6.1C30.2,8.1,31.6,10.3,31.6,14z
			 M25.3,14.2c0,3,0.9,4.8,2.4,4.8c1.6,0,2.4-1.9,2.4-4.9c0-2.9-0.7-4.8-2.4-4.8C26.3,9.3,25.3,11,25.3,14.2z"/>
	</g>
</g>
<g>
</g>
</svg>
