<?xml version="1.0" encoding="utf-8"?>
<!-- Generator: Adobe Illustrator 19.0.0, SVG Export Plug-In . SVG Version: 6.00 Build 0)  -->
<svg version="1.1" id="Layer_1" xmlns="http://www.w3.org/2000/svg" xmlns:xlink="http://www.w3.org/1999/xlink" x="0px" y="0px"
	 viewBox="-171 48 56 56" style="enable-background:new -171 48 56 56;" xml:space="preserve">
<style type="text/css">
	.st0{fill:#9B9B9B;}
</style>
<title>a</title>
<g id="_Group_">
	<g id="_Group_2">
		<path class="st0" d="M-143,89.6c-7.5,0-13.6-6.1-13.6-13.6c0-7.5,6.1-13.6,13.6-13.6s13.6,6.1,13.6,13.6l0,0
			C-129.4,83.5-135.5,89.6-143,89.6z M-143,64.3c-6.5,0-11.7,5.2-11.7,11.7s5.2,11.7,11.7,11.7s11.7-5.2,11.7-11.7c0,0,0,0,0,0
			C-131.3,69.6-136.5,64.3-143,64.3z"/>
	</g>
	<g id="_Group_3">
		<path class="st0" d="M-155.6,64.3c-0.2,0-0.5-0.1-0.7-0.3l-4.8-4.8c-0.4-0.4-0.4-1,0-1.3c0.4-0.4,1-0.4,1.3,0l4.8,4.8
			c0.4,0.4,0.4,1,0,1.3C-155.1,64.2-155.3,64.3-155.6,64.3z"/>
	</g>
	<g id="_Group_4">
		<path class="st0" d="M-125.6,94.3c-0.2,0-0.5-0.1-0.7-0.3l-4.8-4.8c-0.4-0.4-0.4-1,0-1.3c0.4-0.4,1-0.4,1.3,0l4.8,4.8
			c0.4,0.4,0.4,1,0,1.3C-125.1,94.2-125.4,94.3-125.6,94.3z"/>
	</g>
	<g id="_Group_5">
		<path class="st0" d="M-160.4,94.3c-0.5,0-0.9-0.4-0.9-0.9c0-0.2,0.1-0.5,0.3-0.7l4.8-4.8c0.4-0.4,1-0.4,1.3,0c0.4,0.4,0.4,1,0,1.3
			l0,0l-4.8,4.8C-159.9,94.2-160.1,94.3-160.4,94.3z"/>
	</g>
	<g id="_Group_6">
		<path class="st0" d="M-130.4,64.3c-0.5,0-0.9-0.4-0.9-0.9c0-0.2,0.1-0.5,0.3-0.7l4.8-4.8c0.4-0.4,1-0.4,1.3,0c0.4,0.4,0.4,1,0,1.3
			l0,0l-4.8,4.8C-129.9,64.2-130.2,64.3-130.4,64.3z"/>
	</g>
	<g id="_Group_7">
		<path class="st0" d="M-160.8,76.9h-9.2c-0.5,0-0.9-0.4-0.9-0.9c0-0.5,0.4-0.9,0.9-0.9h9.2c0.5,0,0.9,0.4,0.9,0.9
			C-159.9,76.5-160.3,76.9-160.8,76.9z"/>
	</g>
	<g id="_Group_8">
		<path class="st0" d="M-115.9,76.9h-9.2c-0.5,0-0.9-0.4-0.9-0.9c0-0.5,0.4-0.9,0.9-0.9l0,0h9.2c0.5,0,0.9,0.4,0.9,0.9
			C-115,76.5-115.4,76.9-115.9,76.9z"/>
	</g>
	<g id="_Group_9">
		<path class="st0" d="M-143,59.1c-0.5,0-0.9-0.4-0.9-0.9v-9.2c0-0.5,0.4-0.9,0.9-0.9s0.9,0.4,0.9,0.9v9.2
			C-142.1,58.7-142.5,59.1-143,59.1z"/>
	</g>
	<g id="_Group_10">
		<path class="st0" d="M-143,104c-0.5,0-0.9-0.4-0.9-0.9v-9.2c0-0.5,0.4-0.9,0.9-0.9s0.9,0.4,0.9,0.9l0,0v9.2
			C-142.1,103.6-142.5,104-143,104z"/>
	</g>
</g>
</svg>
