<?xml version="1.0" encoding="utf-8"?>
<!-- Generator: Adobe Illustrator 19.0.0, SVG Export Plug-In . SVG Version: 6.00 Build 0)  -->
<svg version="1.1" id="Layer_1" xmlns="http://www.w3.org/2000/svg" xmlns:xlink="http://www.w3.org/1999/xlink" x="0px" y="0px"
	 viewBox="-176 48 47 56" style="enable-background:new -176 48 47 56;" xml:space="preserve">
<style type="text/css">
	.st0{fill:#9B9B9B;}
	.st1{fill:none;stroke:#9B9B9B;stroke-width:1.875;stroke-linecap:round;stroke-linejoin:round;}
	.st2{fill:#FFFFFF;}
</style>
<title>Vector Smart Object6</title>
<g>
	<path class="st0" d="M-167.5,59h30c1.4,0,2.5,1.1,2.5,2.5v30c0,1.4-1.1,2.5-2.5,2.5h-30c-1.4,0-2.5-1.1-2.5-2.5v-30
		C-170,60.1-168.9,59-167.5,59z"/>
	<path class="st1" d="M-175,58v-1c0.1-1.6,1.4-2.9,3-3h1"/>
	<path class="st1" d="M-133.8,54.2h1c1.5,0,2.8,1.3,2.8,2.8l0,0v0.9"/>
	<path class="st1" d="M-130,94.8v0.9c0,1.6-1.3,2.8-2.9,2.8l0,0h-1"/>
	<path class="st1" d="M-171.2,98.5h-1c-1.6,0-2.8-1.3-2.9-2.8l0,0v-0.9"/>
	<path class="st2" d="M-150.7,78.2h-4.2l-1.1,3h-1.4l3.9-10.5h1.3l3.9,10.5h-1.4L-150.7,78.2z M-154.5,77.1h3.4l-1.6-4.7h-0.1
		L-154.5,77.1z"/>
</g>
</svg>
