<?xml version="1.0" encoding="utf-8"?>
<!-- Generator: Adobe Illustrator 19.0.0, SVG Export Plug-In . SVG Version: 6.00 Build 0)  -->
<svg version="1.1" id="Layer_1" xmlns="http://www.w3.org/2000/svg" xmlns:xlink="http://www.w3.org/1999/xlink" x="0px" y="0px"
	 viewBox="-178 54.9 42.1 42.1" style="enable-background:new -178 54.9 42.1 42.1;" xml:space="preserve">
<style type="text/css">
	.st0{fill:#9B9B9B;}
	.st1{fill:#FFFFFF;}
</style>
<title>Vector Smart Object1</title>
<g>
	<g>
		<path class="st0" d="M-173.3,56.9h33c1.4,0,2.5,1.1,2.5,2.5v33c0,1.4-1.1,2.5-2.5,2.5h-33c-1.4,0-2.5-1.1-2.5-2.5v-33
			C-175.9,58-174.8,56.9-173.3,56.9z"/>
		<path class="st0" d="M-144.6,54.9L-144.6,54.9c0.4,0,0.8,0.3,0.8,0.8v1.5c0,0.4-0.3,0.8-0.8,0.8s-0.8-0.4-0.8-0.9v-1.4
			C-145.4,55.2-145.1,54.9-144.6,54.9z"/>
		<path class="st0" d="M-148.2,54.9L-148.2,54.9c0.6,0,0.8,0.3,0.8,0.8v1.5c0,0.4-0.3,0.8-0.8,0.8s-0.8-0.3-0.8-0.8v-1.5
			C-148.9,55.2-148.6,54.9-148.2,54.9z"/>
		<path class="st0" d="M-151.6,54.9L-151.6,54.9c0.4,0,0.8,0.3,0.8,0.8v1.5c0,0.4-0.3,0.8-0.8,0.8s-0.8-0.4-0.8-0.9v-1.4
			C-152.4,55.2-152.1,54.9-151.6,54.9z"/>
		<path class="st0" d="M-155.2,54.9L-155.2,54.9c0.6,0,0.8,0.3,0.8,0.8v1.5c0,0.4-0.3,0.8-0.8,0.8s-0.8-0.3-0.8-0.8v-1.5
			C-155.9,55.2-155.6,54.9-155.2,54.9z"/>
		<path class="st0" d="M-158.6,54.9L-158.6,54.9c0.4,0,0.8,0.3,0.8,0.8v1.5c0,0.4-0.3,0.8-0.8,0.8s-0.8-0.4-0.8-0.9v-1.4
			C-159.4,55.2-159.1,54.9-158.6,54.9z"/>
		<path class="st0" d="M-162.2,54.9L-162.2,54.9c0.6,0,0.8,0.3,0.8,0.8v1.5c0,0.4-0.3,0.8-0.8,0.8s-0.8-0.3-0.8-0.8v-1.5
			C-162.9,55.2-162.6,54.9-162.2,54.9z"/>
		<path class="st0" d="M-165.5,54.9L-165.5,54.9c0.4,0,0.8,0.3,0.8,0.8v1.5c0,0.4-0.3,0.8-0.8,0.8s-0.8-0.4-0.8-0.9v-1.4
			C-166.3,55.2-166,54.9-165.5,54.9z"/>
		<path class="st0" d="M-169.2,54.9L-169.2,54.9c0.5,0,0.8,0.3,0.8,0.8v1.5c0,0.4-0.3,0.8-0.8,0.8s-0.6-0.4-0.6-0.9v-1.4
			C-169.8,55.2-169.5,54.9-169.2,54.9z"/>
		<path class="st0" d="M-144.6,93.9L-144.6,93.9c0.4,0,0.8,0.3,0.8,0.8v1.5c0,0.4-0.3,0.8-0.8,0.8s-0.8-0.4-0.8-0.9v-1.5
			C-145.4,94.2-145.1,93.9-144.6,93.9z"/>
		<path class="st0" d="M-148.2,93.9L-148.2,93.9c0.4,0,0.8,0.3,0.8,0.8v1.5c0,0.4-0.3,0.8-0.8,0.8s-0.8-0.3-0.8-0.8v-1.5
			C-148.9,94.2-148.6,93.9-148.2,93.9z"/>
		<path class="st0" d="M-151.6,93.9L-151.6,93.9c0.4,0,0.8,0.3,0.8,0.8v1.5c0,0.4-0.3,0.8-0.8,0.8s-0.8-0.4-0.8-0.9v-1.5
			C-152.4,94.2-152.1,93.9-151.6,93.9z"/>
		<path class="st0" d="M-155.2,93.9L-155.2,93.9c0.4,0,0.8,0.3,0.8,0.8v1.5c0,0.4-0.3,0.8-0.8,0.8s-0.8-0.3-0.8-0.8v-1.5
			C-155.9,94.2-155.6,93.9-155.2,93.9z"/>
		<path class="st0" d="M-158.6,93.9L-158.6,93.9c0.4,0,0.8,0.3,0.8,0.8v1.5c0,0.4-0.3,0.8-0.8,0.8s-0.8-0.4-0.8-0.9v-1.5
			C-159.4,94.2-159.1,93.9-158.6,93.9z"/>
		<path class="st0" d="M-162.2,93.9L-162.2,93.9c0.4,0,0.8,0.3,0.8,0.8v1.5c0,0.4-0.3,0.8-0.8,0.8s-0.8-0.3-0.8-0.8v-1.5
			C-162.9,94.2-162.6,93.9-162.2,93.9z"/>
		<path class="st0" d="M-165.5,93.9L-165.5,93.9c0.4,0,0.8,0.3,0.8,0.8v1.5c0,0.4-0.3,0.8-0.8,0.8s-0.8-0.4-0.8-0.9v-1.5
			C-166.3,94.2-166,93.9-165.5,93.9z"/>
		<path class="st0" d="M-169.2,93.9L-169.2,93.9c0.4,0,0.8,0.3,0.8,0.8v1.5c0,0.4-0.3,0.8-0.8,0.8s-0.8-0.3-0.8-0.8v-1.5
			C-169.8,94.2-169.5,93.9-169.2,93.9z"/>
		<path class="st0" d="M-135.9,63.7L-135.9,63.7c0,0.4-0.3,0.8-0.8,0.8h-1.5c-0.4,0-0.8-0.3-0.8-0.8c0-0.5,0.3-0.8,0.8-0.8h1.5
			C-136.2,62.9-135.9,63.2-135.9,63.7z"/>
		<path class="st0" d="M-135.9,67.1L-135.9,67.1c0,0.4-0.3,0.8-0.8,0.8h-1.5c-0.4,0-0.8-0.3-0.8-0.8s0.3-0.8,0.8-0.8h1.5
			C-136.2,66.4-135.9,66.7-135.9,67.1z"/>
		<path class="st0" d="M-135.9,70.7L-135.9,70.7c0,0.4-0.3,0.8-0.8,0.8h-1.5c-0.4,0-0.8-0.3-0.8-0.8s0.3-0.8,0.8-0.8h1.5
			C-136.2,69.9-135.9,70.2-135.9,70.7z"/>
		<path class="st0" d="M-135.9,74.1L-135.9,74.1c0,0.4-0.3,0.8-0.8,0.8h-1.5c-0.4,0-0.8-0.3-0.8-0.8s0.3-0.8,0.8-0.8h1.5
			C-136.2,73.4-135.9,73.7-135.9,74.1z"/>
		<path class="st0" d="M-135.9,77.7L-135.9,77.7c0,0.4-0.3,0.8-0.8,0.8h-1.5c-0.4,0-0.8-0.3-0.8-0.8s0.3-0.8,0.8-0.8h1.5
			C-136.2,76.9-135.9,77.2-135.9,77.7z"/>
		<path class="st0" d="M-135.9,81.1L-135.9,81.1c0,0.4-0.3,0.8-0.8,0.8h-1.5c-0.4,0-0.8-0.3-0.8-0.8s0.3-0.8,0.8-0.8h1.5
			C-136.2,80.4-135.9,80.7-135.9,81.1z"/>
		<path class="st0" d="M-135.9,84.7L-135.9,84.7c0,0.4-0.3,0.8-0.8,0.8h-1.5c-0.4,0-0.8-0.3-0.8-0.8s0.3-0.8,0.8-0.8h1.5
			C-136.2,83.9-135.9,84.2-135.9,84.7z"/>
		<path class="st0" d="M-135.9,88.1L-135.9,88.1c0,0.4-0.3,0.8-0.8,0.8h-1.5c-0.4,0-0.8-0.3-0.8-0.8s0.3-0.8,0.8-0.8h1.5
			C-136.2,87.4-135.9,87.7-135.9,88.1z"/>
		<path class="st0" d="M-174.8,63.7L-174.8,63.7c0,0.4-0.3,0.8-0.8,0.8h-1.6c-0.4,0-0.8-0.3-0.8-0.8c0-0.5,0.4-0.8,0.8-0.8h1.5
			C-175.2,62.9-174.8,63.2-174.8,63.7z"/>
		<path class="st0" d="M-174.8,67.1L-174.8,67.1c0,0.4-0.3,0.8-0.8,0.8h-1.6c-0.4,0-0.8-0.3-0.8-0.8s0.3-0.8,0.8-0.8h1.5
			C-175.2,66.4-174.8,66.7-174.8,67.1z"/>
		<path class="st0" d="M-174.8,70.7L-174.8,70.7c0,0.4-0.3,0.8-0.8,0.8h-1.6c-0.4,0-0.8-0.3-0.8-0.8s0.4-0.8,0.8-0.8h1.5
			C-175.2,69.9-174.8,70.2-174.8,70.7z"/>
		<path class="st0" d="M-174.8,74.1L-174.8,74.1c0,0.4-0.3,0.8-0.8,0.8h-1.6c-0.4,0-0.8-0.3-0.8-0.8s0.3-0.8,0.8-0.8h1.5
			C-175.2,73.4-174.8,73.7-174.8,74.1z"/>
		<path class="st0" d="M-174.8,77.7L-174.8,77.7c0,0.4-0.3,0.8-0.8,0.8h-1.6c-0.4,0-0.8-0.3-0.8-0.8s0.4-0.8,0.8-0.8h1.5
			C-175.2,76.9-174.8,77.2-174.8,77.7z"/>
		<path class="st0" d="M-174.8,81.1L-174.8,81.1c0,0.4-0.3,0.8-0.8,0.8h-1.6c-0.4,0-0.8-0.3-0.8-0.8s0.3-0.8,0.8-0.8h1.5
			C-175.2,80.4-174.8,80.7-174.8,81.1z"/>
		<path class="st0" d="M-174.8,84.7L-174.8,84.7c0,0.4-0.3,0.8-0.8,0.8h-1.6c-0.4,0-0.8-0.3-0.8-0.8s0.4-0.8,0.8-0.8h1.5
			C-175.2,83.9-174.8,84.2-174.8,84.7z"/>
		<path class="st0" d="M-174.8,88.1L-174.8,88.1c0,0.4-0.3,0.8-0.8,0.8h-1.6c-0.4,0-0.8-0.3-0.8-0.8s0.3-0.8,0.8-0.8h1.5
			C-175.2,87.4-174.8,87.7-174.8,88.1z"/>
	</g>
	<g>
		<path class="st1" d="M-170.5,80c0.7,0.4,1.7,0.8,2.8,0.8c1.6,0,2.5-0.8,2.5-2.1c0-1.1-0.6-1.8-2.3-2.4c-2-0.7-3.2-1.7-3.2-3.4
			c0-1.9,1.6-3.3,3.9-3.3c1.2,0,2.1,0.3,2.7,0.6l-0.4,1.3c-0.4-0.2-1.2-0.6-2.3-0.6c-1.7,0-2.3,1-2.3,1.8c0,1.1,0.7,1.7,2.4,2.3
			c2.1,0.8,3.1,1.8,3.1,3.6c0,1.9-1.4,3.5-4.2,3.5c-1.2,0-2.4-0.3-3.1-0.8L-170.5,80z"/>
		<path class="st1" d="M-161.6,80c0.7,0.4,1.7,0.8,2.8,0.8c1.6,0,2.5-0.8,2.5-2.1c0-1.1-0.6-1.8-2.3-2.4c-2-0.7-3.2-1.7-3.2-3.4
			c0-1.9,1.6-3.3,3.9-3.3c1.2,0,2.1,0.3,2.7,0.6l-0.4,1.3c-0.4-0.2-1.2-0.6-2.3-0.6c-1.7,0-2.3,1-2.3,1.8c0,1.1,0.7,1.7,2.4,2.3
			c2.1,0.8,3.1,1.8,3.1,3.6c0,1.9-1.4,3.5-4.2,3.5c-1.2,0-2.4-0.3-3.1-0.8L-161.6,80z"/>
		<path class="st1" d="M-152.5,69.9c1-0.1,2.1-0.3,3.3-0.3c2.3,0,3.9,0.5,4.9,1.5c1.1,1,1.7,2.4,1.7,4.4c0,2-0.6,3.6-1.7,4.7
			c-1.1,1.1-3,1.7-5.4,1.7c-1.1,0-2.1-0.1-2.8-0.1V69.9z M-150.9,80.7c0.4,0.1,1,0.1,1.6,0.1c3.3,0,5.2-1.9,5.2-5.1
			c0-2.9-1.6-4.7-4.9-4.7c-0.8,0-1.4,0.1-1.8,0.2V80.7z"/>
	</g>
</g>
</svg>
