<?xml version="1.0" encoding="utf-8"?>
<!-- Generator: Adobe Illustrator 19.0.0, SVG Export Plug-In . SVG Version: 6.00 Build 0)  -->
<svg version="1.1" id="Слой_1" xmlns="http://www.w3.org/2000/svg" xmlns:xlink="http://www.w3.org/1999/xlink" x="0px" y="0px"
	 viewBox="0 0 38 38" style="enable-background:new 0 0 38 38;" xml:space="preserve">
<style type="text/css">
	.st0{fill:none;}
	.st1{fill:#9B9B9B;}
	.st2{fill:#FFFFFF;}
</style>
<title>icon_gps_large</title>
<desc>Created with Sketch.</desc>
<g>
	<g>
		<g id="Page-1">
			<g id="icon_gps_large" transform="translate(-1.000000, -2.000000)">
				<g id="Layer_1">
					<rect id="Rectangle-path" class="st0" width="40" height="47"/>
					<path id="Shape" class="st1" d="M20,2C9.5,2,1,10.5,1,21s8.5,19,19,19c10.5,0,19-8.5,19-19S30.5,2,20,2L20,2z"/>
				</g>
			</g>
		</g>
	</g>
	<g>
	</g>
	<g>
		<path class="st2" d="M6.2,14.4L6.2,14.4l-2.1,1.1l-0.3-1.2l2.6-1.4h1.4v11.7H6.2V14.4z"/>
		<path class="st2" d="M19.6,12.9v1l-5.1,10.7h-1.6l5.1-10.4v0h-5.7v-1.3H19.6z"/>
		<path class="st2" d="M26.5,16.2c0,2.5-1.3,3.7-2.8,3.7c-1.5,0-2.7-1.2-2.7-3.5c0-2.3,1.3-3.7,2.8-3.7
			C25.4,12.7,26.5,13.9,26.5,16.2z M22.2,16.3c0,1.5,0.5,2.6,1.5,2.6c1,0,1.5-1.1,1.5-2.7c0-1.4-0.4-2.6-1.5-2.6
			C22.7,13.6,22.2,14.8,22.2,16.3z M23.6,24.8l6.9-12.1h1l-6.9,12.1H23.6z M34.1,21c0,2.5-1.3,3.7-2.8,3.7c-1.5,0-2.7-1.2-2.7-3.5
			c0-2.4,1.3-3.7,2.8-3.7C33,17.5,34.1,18.8,34.1,21z M29.8,21.1c0,1.5,0.6,2.6,1.5,2.6c1,0,1.5-1.1,1.5-2.7c0-1.4-0.4-2.6-1.5-2.6
			C30.3,18.5,29.8,19.6,29.8,21.1z"/>
	</g>
</g>
</svg>
