<?xml version="1.0" encoding="utf-8"?>
<!-- Generator: Adobe Illustrator 19.0.0, SVG Export Plug-In . SVG Version: 6.00 Build 0)  -->
<svg version="1.1" id="Layer_1" xmlns="http://www.w3.org/2000/svg" xmlns:xlink="http://www.w3.org/1999/xlink" x="0px" y="0px"
	 viewBox="-179 48 40 56" style="enable-background:new -179 48 40 56;" xml:space="preserve">
<style type="text/css">
	.st0{fill:#9B9B9B;}
</style>
<title>Vector Smart Object10</title>
<path id="_Path_" class="st0" d="M-163.8,86.7l4.3-8.8c0.1-0.1,0-0.3-0.1-0.3c0,0-0.1,0-0.1,0h-6.1c-0.1,0-0.2-0.1-0.2-0.3
	c0,0,0-0.1,0-0.1l7.7-20.6c0-0.1,0.1-0.2,0.2-0.2h6.3c0.1,0,0.2,0.1,0.2,0.3c0,0,0,0.1,0,0.1l-8.2,16.1c-0.1,0.1,0,0.3,0.1,0.3
	c0,0,0.1,0,0.1,0h7c0.1,0,0.2,0.1,0.2,0.3c0,0,0,0.1,0,0.1l-9.2,14.4l3,0.6c0.1,0,0.2,0.2,0.2,0.3c0,0.1,0,0.1-0.1,0.2l-7.7,6.3
	c-0.1,0.1-0.2,0.1-0.3,0c0-0.1-0.1-0.1,0-0.2V84.8c0-0.1,0.1-0.2,0.2-0.2c0.1,0,0.1,0,0.2,0.1L-163.8,86.7z"/>
</svg>
