<?xml version="1.0" encoding="utf-8"?>
<!-- Generator: Adobe Illustrator 19.0.0, SVG Export Plug-In . SVG Version: 6.00 Build 0)  -->
<svg version="1.1" id="Layer_1" xmlns="http://www.w3.org/2000/svg" xmlns:xlink="http://www.w3.org/1999/xlink" x="0px" y="0px"
	 viewBox="-177 48 44 56" style="enable-background:new -177 48 44 56;" xml:space="preserve">
<style type="text/css">
	.st0{fill:#9B9B9B;}
	.st1{fill:#FFFFFF;}
</style>
<title>Vector Smart Object7</title>
<g>
	<g id="_Group_">
		<path class="st0" d="M-155,96.6c-11.4,0-20.6-9.2-20.6-20.6s9.2-20.6,20.6-20.6s20.6,9.2,20.6,20.6
			C-134.4,87.4-143.6,96.6-155,96.6z"/>
		<path class="st0" d="M-155,55.8c11.2,0,20.2,9.1,20.2,20.2s-9.1,20.2-20.2,20.2s-20.2-9.1-20.2-20.2
			C-175.2,64.8-166.2,55.8-155,55.8 M-155,55c-11.6,0-21,9.4-21,21s9.4,21,21,21s21-9.4,21-21S-143.4,55-155,55L-155,55z"/>
	</g>
	<g id="_Group_2">
		<path class="st1" d="M-154.9,78.7c0.1-0.4-0.1-0.8-0.5-0.9c-0.1,0-0.1,0-0.2,0h-4.9l7.8-12.6l-2.3,8.1c-0.1,0.4,0.1,0.8,0.5,0.9
			c0.1,0,0.1,0,0.2,0h4.9l-7.6,12.6L-154.9,78.7z"/>
		<path class="st1" d="M-153.5,66.8l-1.9,6.4c-0.1,0.5,0.2,1.1,0.7,1.2c0.1,0,0.2,0,0.2,0h4.5l-6.5,10.8l1.7-6.5
			c0.1-0.5-0.2-1.1-0.7-1.2c-0.1,0-0.2,0-0.2,0h-4.5L-153.5,66.8 M-152,63.5l-9,14.5h5.4c0.3,0,0.5,0.2,0.5,0.5c0,0,0,0.1,0,0.1
			l-2.6,9.9L-149,74h-5.4c-0.3,0-0.5-0.2-0.5-0.5c0,0,0-0.1,0-0.1L-152,63.5L-152,63.5z M-149,74L-149,74z"/>
	</g>
</g>
</svg>
