<?xml version="1.0" encoding="UTF-8"?>
<svg width="38px" height="38px" viewBox="0 0 38 38" version="1.1" xmlns="http://www.w3.org/2000/svg" xmlns:xlink="http://www.w3.org/1999/xlink">
    <!-- Generator: Sketch 40.3 (33839) - http://www.bohemiancoding.com/sketch -->
    <title>icon_gps_large copy</title>
    <desc>Created with Sketch.</desc>
    <defs></defs>
    <g id="Page-1" stroke="none" stroke-width="1" fill="none" fill-rule="evenodd">
        <g id="icon_gps_large-copy" transform="translate(-1.000000, -2.000000)">
            <g id="Layer_1">
                <rect id="Rectangle-path" x="0" y="0" width="40" height="47"></rect>
                <path d="M1,21 C1,31.493 9.506,40 20,40 C30.493,40 39,31.493 39,21 C39,10.507 30.493,2 20,2 C9.506,2 1,10.507 1,21 Z" id="Shape" fill="#9B9B9B"></path>
                <path d="M13.3085938,26 L14.4980469,26 L14.4980469,16.1357422 L13.2949219,16.1357422 C13.2949219,16.1357422 13.1627617,16.230305 12.8984375,16.4194336 C12.6341133,16.6085621 12.3287778,16.8284493 11.9824219,17.0791016 C11.636066,17.3297539 11.3307305,17.549641 11.0664062,17.7387695 C10.802082,17.9278981 10.6699219,18.0224609 10.6699219,18.0224609 L10.6699219,19.3212891 C10.6699219,19.3212891 10.8009427,19.2267262 11.0629883,19.0375977 C11.3250339,18.8484691 11.62923,18.6297213 11.9755859,18.3813477 C12.3219418,18.132974 12.626138,17.9142262 12.8881836,17.7250977 C13.1502292,17.5359691 13.28125,17.4414062 13.28125,17.4414062 L13.3085938,17.4414062 L13.3085938,18.0600586 L13.3085938,19.652832 L13.3085938,21.7207031 L13.3085938,23.7885742 L13.3085938,25.3813477 L13.3085938,26 L13.3085938,26 Z M20.0625,26.1640625 C21.1106823,26.1640625 21.9697232,25.8986029 22.6396484,25.3676758 C23.3095737,24.8367486 23.6445312,24.1588583 23.6445312,23.3339844 C23.6445312,22.7233042 23.449709,22.1855492 23.0600586,21.7207031 C22.6704082,21.2558571 22.1565787,20.9482429 21.5185547,20.7978516 L21.5185547,20.7705078 C22.0563178,20.5973299 22.4778631,20.3147806 22.7832031,19.9228516 C23.0885432,19.5309225 23.2412109,19.0797552 23.2412109,18.5693359 C23.2412109,17.8173791 22.9427113,17.1964543 22.3457031,16.706543 C21.7486949,16.2166317 20.9876348,15.9716797 20.0625,15.9716797 C19.1464798,15.9716797 18.386559,16.2166317 17.7827148,16.706543 C17.1788707,17.1964543 16.8769531,17.8151004 16.8769531,18.5625 C16.8769531,19.0820338 17.0318995,19.5388978 17.3417969,19.9331055 C17.6516943,20.3273132 18.0732395,20.6064445 18.6064453,20.7705078 L18.6064453,20.7978516 C17.9729786,20.9436856 17.4614277,21.2490211 17.0717773,21.7138672 C16.682127,22.1787133 16.4873047,22.7187469 16.4873047,23.3339844 C16.4873047,24.1588583 16.8222623,24.8367486 17.4921875,25.3676758 C18.1621127,25.8986029 19.018875,26.1640625 20.0625,26.1640625 L20.0625,26.1640625 Z M20.0625,25.0908203 C19.3880175,25.0908203 18.8320334,24.917645 18.3945312,24.5712891 C17.9570291,24.2249332 17.7382812,23.7828803 17.7382812,23.2451172 C17.7382812,22.7027968 17.9570291,22.2584653 18.3945312,21.9121094 C18.8320334,21.5657535 19.3880175,21.3925781 20.0625,21.3925781 C20.7415399,21.3925781 21.2986632,21.5657535 21.7338867,21.9121094 C22.1691102,22.2584653 22.3867188,22.7027968 22.3867188,23.2451172 C22.3867188,23.7828803 22.1691102,24.2249332 21.7338867,24.5712891 C21.2986632,24.917645 20.7415399,25.0908203 20.0625,25.0908203 L20.0625,25.0908203 Z M20.0625,20.3125 C19.4837211,20.3125 19.0120461,20.1598323 18.6474609,19.8544922 C18.2828758,19.5491521 18.1005859,19.157229 18.1005859,18.6787109 C18.1005859,18.1956356 18.2828758,17.8002945 18.6474609,17.4926758 C19.0120461,17.1850571 19.4837211,17.03125 20.0625,17.03125 C20.6412789,17.03125 21.1129539,17.1839177 21.4775391,17.4892578 C21.8421242,17.7945979 22.0244141,18.1910783 22.0244141,18.6787109 C22.0244141,19.157229 21.8409849,19.5491521 21.4741211,19.8544922 C21.1072573,20.1598323 20.6367216,20.3125 20.0625,20.3125 L20.0625,20.3125 Z M30.3710938,26 L30.3710938,18.6308594 L29.1953125,18.6308594 L29.1953125,21.6044922 C29.0266919,21.7958994 28.7862971,21.9645175 28.4741211,22.1103516 C28.1619451,22.2561856 27.7757184,22.3291016 27.3154297,22.3291016 C26.8141251,22.3291016 26.4347344,22.184409 26.1772461,21.8950195 C25.9197578,21.6056301 25.7910156,21.2194035 25.7910156,20.7363281 L25.7910156,18.6308594 L24.6152344,18.6308594 L24.6152344,20.7363281 C24.6152344,21.5201862 24.8430967,22.155922 25.2988281,22.6435547 C25.7545596,23.1311873 26.4244747,23.375 27.3085938,23.375 C27.7096374,23.375 28.0571274,23.323731 28.3510742,23.2211914 C28.645021,23.1186518 28.889973,22.9830738 29.0859375,22.8144531 L29.1953125,22.8144531 L29.1953125,26 L29.3730469,26 L29.7832031,26 L30.1933594,26 L30.3710938,26 L30.3710938,26 Z" id="18ч" fill-opacity="0.99" fill="#FFFFFF"></path>
            </g>
        </g>
    </g>
</svg>