<?xml version="1.0" encoding="utf-8"?>
<!-- Generator: Adobe Illustrator 19.0.0, SVG Export Plug-In . SVG Version: 6.00 Build 0)  -->
<svg version="1.1" id="watch_x5F_series_x5F_2" xmlns="http://www.w3.org/2000/svg" xmlns:xlink="http://www.w3.org/1999/xlink"
	 x="0px" y="0px" viewBox="-232.6 68.4 41.8 15.1" style="enable-background:new -232.6 68.4 41.8 15.1;" xml:space="preserve">
<style type="text/css">
	.st0{fill:#9B9B9B;}
</style>
<path class="st0" d="M-231.5,82.8v-0.6c0-0.7,0.6-1.2,1.2-1.2h19.8c2.7,0,4.9-2.2,4.9-5s-2.2-5-4.9-5h-19.7c-0.7,0-1.2,0-1.2-1.2
	v-0.6c0-0.3-0.3-0.6-0.6-0.6c-0.3,0-0.6,0.3-0.6,0.6v0.6v2.5v7.5v2.5v0.6c0,0.3,0.3,0.6,0.6,0.6C-231.8,83.6-231.6,83.1-231.5,82.8z
	 M-225.3,75.9c0-0.7,0.5-1.2,1.2-1.2s1.2,0.6,1.2,1.2s-0.6,1.2-1.2,1.2C-224.8,77.2-225.3,76.6-225.3,75.9z M-220.4,75.9
	c0-0.7,0.6-1.2,1.2-1.2c0.7,0,1.2,0.6,1.2,1.2s-0.6,1.2-1.2,1.2C-219.8,77.2-220.4,76.6-220.4,75.9z M-215.4,75.9
	c0-0.7,0.5-1.2,1.2-1.2s1.2,0.6,1.2,1.2s-0.6,1.2-1.2,1.2C-214.9,77.2-215.4,76.6-215.4,75.9z M-191.9,69.1v0.6
	c0,1.2-0.5,1.2-1.2,1.2h-13.7c1.5,1.1,2.5,2.9,2.5,5c0,2-1,3.9-2.5,5h13.6c0.7,0,1.2,0.6,1.2,1.2v0.6c0,0.3,0.3,0.6,0.6,0.6
	s0.6-0.3,0.6-0.6v-0.6v-1.3v-1.2v-7.5v-1.2v-1.2v-0.6c0-0.3-0.3-0.6-0.6-0.6C-191.8,68.4-191.9,68.8-191.9,69.1z"/>
</svg>
