<?xml version="1.0" encoding="utf-8"?>
<!-- Generator: Adobe Illustrator 19.0.0, SVG Export Plug-In . SVG Version: 6.00 Build 0)  -->
<svg version="1.1" id="Layer_1" xmlns="http://www.w3.org/2000/svg" xmlns:xlink="http://www.w3.org/1999/xlink" x="0px" y="0px"
	 viewBox="724.2 -38.8 199.7 227.6" style="enable-background:new 724.2 -38.8 199.7 227.6;" xml:space="preserve">
<style type="text/css">
	.st0{fill:none;stroke:#9B9B9B;stroke-width:2.6513;stroke-miterlimit:10;}
</style>
<g>
	<path class="st0" d="M820.7,188.8c-20.2,0-40.5,0-60.7,0c-21,0-35.8-14.9-35.8-35.9c0-52,0-103.9,0-155.9
		c0-20.6,15.1-35.7,35.6-35.8c41.2-0.1,82.5-0.1,123.7,0c19.5,0,34.2,14.3,35.1,33.8c0.2,3.9,0.1,7.8,0.1,11.7c0,3.5-0.6,7,3.5,9.1
		c1,0.5,1.5,3,1.5,4.6c0.1,8.7,0.2,17.4,0,26.1c0,1.7-0.7,4.2-1.9,4.9c-3.4,1.8-3.2,4.5-3.2,7.4c0.1,5.4,0,10.9,0,16.3
		c0,2.5-0.9,5.4,2.7,6.6c0.6,0.2,0.7,2.2,0.7,3.4c0,17,0.1,33.9-0.1,50.9c0,1.4-1.5,2.8-2.2,4.3c-0.5,1.2-1.1,2.4-1.2,3.7
		c-0.2,4.3,0.1,8.7-0.3,13.1c-1.5,18-16.2,31.6-34.2,31.7C863,188.9,841.9,188.8,820.7,188.8C820.7,188.8,820.7,188.8,820.7,188.8z
		 M911.1,74.9C911.1,74.9,911.1,74.9,911.1,74.9c0-26.4,0.1-52.9-0.1-79.3c-0.1-15.4-12-27.1-27.3-27.1c-41.4,0-82.7-0.1-124.1,0
		c-15.9,0-28,11.8-28,27.6c-0.1,52.6-0.1,105.1,0,157.7c0,16.2,12,27.8,28.2,27.8c40.6,0,81.2,0,121.8,0c18.4,0,29.5-11.2,29.5-29.7
		C911.1,126.2,911.1,100.6,911.1,74.9z"/>
	<path class="st0" d="M911.1,74.9c0,25.7,0,51.3,0,77c0,18.5-11.1,29.7-29.5,29.7c-40.6,0-81.2,0-121.8,0
		c-16.2,0-28.2-11.6-28.2-27.8c-0.1-52.6-0.1-105.1,0-157.7c0-15.8,12.1-27.6,28-27.6c41.4-0.1,82.7,0,124.1,0
		c15.3,0,27.2,11.7,27.3,27.1C911.2,22.1,911.1,48.5,911.1,74.9C911.1,74.9,911.1,74.9,911.1,74.9z M819.4,75.6
		c-3.1-2.1-5.4-3.2-7.1-4.9c-1.7-1.6-2.4-4.4-4.2-5.7c-7.5-5.3-15.3-10.1-22.9-15.2c-2.6-1.7-5.3-2.6-7.3,0.4
		c-2.2,3.2-0.4,5.4,2.5,7.3c7.7,5,15.3,10,23,15c1.1,0.7,2.5,1.4,3.8,1.5c7.7,0.8,12.3,5.5,12.3,13.2c0,25.2,0,50.4,0.1,75.6
		c0,1.3,1,2.5,1.5,3.8c0.6-1.2,1.4-2.3,1.8-3.6c0.3-1,0.1-2.2,0.1-3.2c0-24.3,0-48.5,0-72.8c0-5.4,5.2-13.4,9.3-13.4
		c4.3,0,6.9-2.3,9.9-4.4c6.1-4.3,12.1-8.8,18.1-13.2c7.5-5.5,15.1-11,22.6-16.5c3.4-2.5,3.9-5.6,1.4-7.8c-2.6-2.3-4.9-0.9-7.1,0.7
		c-14.5,10.7-29.1,21.3-43.6,32c-1.2,0.9-2.1,2.2-3.1,3.4c-2,2.4-3.9,4.9-5.9,7.4c-0.5-0.3-1-0.6-1.5-0.8c0-3,0.1-6.1-0.1-9.1
		c-0.1-1-1.1-1.8-1.8-2.8c-0.5,1-1.5,1.9-1.5,2.9C819.3,68.3,819.4,71.4,819.4,75.6z"/>
	<path class="st0" d="M819.4,75.6c0-4.2-0.1-7.3,0.1-10.4c0.1-1,1-1.9,1.5-2.9c0.6,0.9,1.7,1.8,1.8,2.8c0.2,3,0.1,6.1,0.1,9.1
		c0.5,0.3,1,0.6,1.5,0.8c2-2.5,3.9-5,5.9-7.4c1-1.2,1.9-2.5,3.1-3.4c14.5-10.7,29.1-21.3,43.6-32c2.2-1.6,4.5-3,7.1-0.7
		c2.4,2.1,1.9,5.3-1.4,7.8c-7.5,5.6-15,11-22.6,16.5c-6,4.4-12,8.9-18.1,13.2c-3,2.1-5.6,4.4-9.9,4.4c-4.1,0-9.3,8-9.3,13.4
		c0,24.3,0,48.5,0,72.8c0,1.1,0.2,2.2-0.1,3.2c-0.4,1.3-1.2,2.4-1.8,3.6c-0.5-1.3-1.5-2.5-1.5-3.8c-0.1-25.2-0.1-50.4-0.1-75.6
		c0-7.7-4.5-12.4-12.3-13.2c-1.3-0.1-2.7-0.8-3.8-1.5c-7.7-5-15.3-10-23-15c-2.8-1.8-4.7-4.1-2.5-7.3c2-3,4.7-2.1,7.3-0.4
		c7.6,5.1,15.4,9.9,22.9,15.2c1.8,1.3,2.5,4.1,4.2,5.7C814,72.4,816.3,73.5,819.4,75.6z"/>
</g>
</svg>
