<?xml version="1.0" encoding="utf-8"?>
<!-- Generator: Adobe Illustrator 19.0.0, SVG Export Plug-In . SVG Version: 6.00 Build 0)  -->
<svg version="1.1" id="_x31_0" xmlns="http://www.w3.org/2000/svg" xmlns:xlink="http://www.w3.org/1999/xlink" x="0px" y="0px"
	 viewBox="-32 22.2 222.2 129.2" style="enable-background:new -32 22.2 222.2 129.2;" xml:space="preserve">
<style type="text/css">
	.st0{fill:#9B9B9B;}
</style>
<g>
	<path class="st0" d="M78.4,22.2h-8.2c-9.7,0-18.8,4.7-24.4,12.6L26.3,62.2c-1.7,2-3.1,4.1-4.3,6.3h-54v36.3v0.1v0.2h53.9
		c1.2,2.2,2.6,4.4,4.3,6.3l19.5,27.4c3.9,5.4,9.4,9.3,15.6,11.2c0.1,0,0.1,0,0.2,0.1c2.8,0.8,5.7,1.3,8.6,1.3h8.2h18.2h27.1
		c6.4,0,11.6-5.2,11.6-11.6v-16.6V98.9V74.7V50.4V33.8c0-6.4-5.2-11.6-11.6-11.6H96.5l0,0H78.4L78.4,22.2z"/>
	<path class="st0" d="M190.2,56.5c0-6.7-5.5-12.1-12.1-12.1h-29.8v24.3h29.8C184.8,68.6,190.2,63.2,190.2,56.5z"/>
	<path class="st0" d="M148.3,129.2h29.8c6.7,0,12.1-5.4,12.1-12.1s-5.5-12.1-12.1-12.1h-29.6h-0.1h-0.1L148.3,129.2L148.3,129.2z"/>
</g>
</svg>
