<?xml version="1.0" encoding="utf-8"?>
<!-- Generator: Adobe Illustrator 20.1.0, SVG Export Plug-In . SVG Version: 6.00 Build 0)  -->
<svg version="1.1" id="Layer_1" xmlns="http://www.w3.org/2000/svg" xmlns:xlink="http://www.w3.org/1999/xlink" x="0px" y="0px"
	 viewBox="0 0 310 310" style="enable-background:new 0 0 310 310;" xml:space="preserve">
<style type="text/css">
	.st0{fill:#9B9B9B;}
</style>
<g id="XMLID_503_">
	<path id="XMLID_504_" class="st0" d="M155,90c-35.8,0-65,29.2-65,65c0,35.8,29.2,65,65,65c35.8,0,65-29.2,65-65
		C220,119.2,190.8,90,155,90z M155,190c-19.3,0-35-15.7-35-35c0-19.3,15.7-35,35-35c19.3,0,35,15.7,35,35
		C190,174.3,174.3,190,155,190z"/>
	<path id="XMLID_507_" class="st0" d="M155,60c8.3,0,15-6.7,15-15V15c0-8.3-6.7-15-15-15s-15,6.7-15,15v30C140,53.3,146.7,60,155,60
		z"/>
	<path id="XMLID_508_" class="st0" d="M155,250c-8.3,0-15,6.7-15,15v30c0,8.3,6.7,15,15,15s15-6.7,15-15v-30
		C170,256.7,163.3,250,155,250z"/>
	<path id="XMLID_509_" class="st0" d="M295,140h-30c-8.3,0-15,6.7-15,15s6.7,15,15,15h30c8.3,0,15-6.7,15-15S303.3,140,295,140z"/>
	<path id="XMLID_510_" class="st0" d="M60,155c0-8.3-6.7-15-15-15H15c-8.3,0-15,6.7-15,15s6.7,15,15,15h30C53.3,170,60,163.3,60,155
		z"/>
	<path id="XMLID_511_" class="st0" d="M232.8,92.2c3.8,0,7.7-1.5,10.6-4.4l21.2-21.2c5.9-5.9,5.9-15.4,0-21.2
		c-5.9-5.9-15.4-5.9-21.2,0l-21.2,21.2c-5.9,5.9-5.9,15.4,0,21.2C225.1,90.8,228.9,92.2,232.8,92.2z"/>
	<path id="XMLID_512_" class="st0" d="M66.6,222.2l-21.2,21.2c-5.9,5.9-5.9,15.4,0,21.2c2.9,2.9,6.8,4.4,10.6,4.4s7.7-1.5,10.6-4.4
		l21.2-21.2c5.9-5.9,5.9-15.4,0-21.2C82,216.3,72.5,216.3,66.6,222.2z"/>
	<path id="XMLID_515_" class="st0" d="M243.4,222.2c-5.9-5.9-15.4-5.9-21.2,0s-5.9,15.4,0,21.2l21.2,21.2c2.9,2.9,6.8,4.4,10.6,4.4
		c3.8,0,7.7-1.5,10.6-4.4c5.9-5.9,5.9-15.4,0-21.2L243.4,222.2z"/>
	<path id="XMLID_516_" class="st0" d="M66.6,87.8c2.9,2.9,6.8,4.4,10.6,4.4c3.8,0,7.7-1.5,10.6-4.4c5.9-5.9,5.9-15.4,0-21.2
		L66.6,45.4c-5.9-5.9-15.4-5.9-21.2,0s-5.9,15.4,0,21.2L66.6,87.8z"/>
</g>
</svg>
