<?xml version="1.0" encoding="UTF-8"?>
<svg width="38px" height="38px" viewBox="0 0 38 38" version="1.1" xmlns="http://www.w3.org/2000/svg" xmlns:xlink="http://www.w3.org/1999/xlink">
    <!-- Generator: Sketch 40.3 (33839) - http://www.bohemiancoding.com/sketch -->
    <title>icon_dock_large</title>
    <desc>Created with Sketch.</desc>
    <defs></defs>
    <g id="Page-1" stroke="none" stroke-width="1" fill="none" fill-rule="evenodd">
        <g id="icon_dock_large" transform="translate(-1.000000, -2.000000)">
            <g id="Layer_1">
                <g id="Group">
                    <path d="M23,15 L17,15 C15.897,15 15,15.897 15,17 L15,25 C15,26.103 15.897,27 17,27 L23,27 C24.103,27 25,26.103 25,25 L25,17 C25,15.897 24.103,15 23,15 L23,15 Z M20,2 C9.507,2 1,10.507 1,21 C1,31.493 9.507,40 20,40 C30.493,40 39,31.493 39,21 C39,10.507 30.493,2 20,2 L20,2 Z M32,20 L31,20 L31,27 C31,30.3 28.3,33 25,33 L15,33 C11.7,33 9,30.3 9,27 L9,15 C9,11.7 11.7,9 15,9 L25,9 C27.959,9 30.429,11.173 30.909,14 L32,14 L32,20 L32,20 Z M25,11 L15,11 C12.794,11 11,12.794 11,15 L11,27 C11,29.206 12.794,31 15,31 L25,31 C27.206,31 29,29.206 29,27 L29,15 C29,12.794 27.206,11 25,11 L25,11 Z M13,25 C13,25.88 12.609,26.667 12,27.217 L12,25 L12,17 L12,14.783 C12.609,15.333 13,16.12 13,17 L13,25 L13,25 Z M26,25 C26,26.65 24.65,28 23,28 L17,28 C15.35,28 14,26.65 14,25 L14,17 C14,15.35 15.35,14 17,14 L23,14 C24.65,14 26,15.35 26,17 L26,25 L26,25 Z M28,17 L28,25 L28,27.217 C27.391,26.667 27,25.88 27,25 L27,17 C27,16.12 27.391,15.333 28,14.783 L28,17 L28,17 Z" id="Shape" fill="#9B9B9B"></path>
                    <rect id="Rectangle-path" x="0" y="0" width="40" height="47"></rect>
                </g>
            </g>
        </g>
    </g>
</svg>