<?xml version="1.0" encoding="UTF-8"?>
<svg width="38px" height="38px" viewBox="0 0 38 38" version="1.1" xmlns="http://www.w3.org/2000/svg" xmlns:xlink="http://www.w3.org/1999/xlink">
    <!-- Generator: Sketch 40.3 (33839) - http://www.bohemiancoding.com/sketch -->
    <title>icon_gps_large</title>
    <desc>Created with Sketch.</desc>
    <defs></defs>
    <g id="Page-1" stroke="none" stroke-width="1" fill="none" fill-rule="evenodd">
        <g id="icon_gps_large" transform="translate(-1.000000, -2.000000)">
            <g id="Layer_1">
                <rect id="Rectangle-path" x="0" y="0" width="40" height="47"></rect>
                <path d="M20,2 C9.506,2 1,10.507 1,21 C1,31.493 9.506,40 20,40 C30.493,40 39,31.493 39,21 C39,10.507 30.493,2 20,2 L20,2 Z M28.702,13.013 L18.956,34.738 C18.874,34.921 18.694,35.033 18.5,35.033 C18.465,35.033 18.43,35.03 18.396,35.022 C18.165,34.973 18,34.769 18,34.533 L18,23 L5.77,23 C5.533,23 5.328,22.833 5.28,22.601 C5.232,22.369 5.354,22.135 5.572,22.041 L28.048,12.349 C28.236,12.266 28.457,12.309 28.602,12.457 C28.747,12.604 28.787,12.825 28.702,13.013 L28.702,13.013 Z" id="Shape" fill="#9B9B9B"></path>
            </g>
        </g>
    </g>
</svg>