<?xml version="1.0" encoding="UTF-8"?>
<svg width="38px" height="38px" viewBox="0 0 38 38" version="1.1" xmlns="http://www.w3.org/2000/svg" xmlns:xlink="http://www.w3.org/1999/xlink">
    <!-- Generator: Sketch 40.3 (33839) - http://www.bohemiancoding.com/sketch -->
    <title>icon_heartrate_large</title>
    <desc>Created with Sketch.</desc>
    <defs></defs>
    <g id="Page-1" stroke="none" stroke-width="1" fill="none" fill-rule="evenodd">
        <g id="icon_heartrate_large" transform="translate(-4.000000, -5.000000)">
            <g id="Layer_1">
                <rect id="Rectangle-path" x="0.46" y="0.6" width="47.08" height="52.8"></rect>
                <path d="M23,5 C12.5065898,5 4,13.5065898 4,24 C4,34.4934102 12.5065898,43 23,43 C33.4934102,43 42,34.4934102 42,24 C42,13.5065898 33.4934102,5 23,5 L23,5 Z M34,22 C33.4477153,22 33,21.5522847 33,21 C33.0672905,19.6594914 32.5725865,18.351634 31.6349667,17.391238 C30.6973469,16.430842 29.4017373,15.9048965 28.06,15.94 C26.4261654,15.875207 24.8476815,16.538097 23.75,17.75 C23.51,18 22.95,18.75 22.95,18.75 C22.7049663,18.4026093 22.4412445,18.0687842 22.16,17.75 C21.0680882,16.5440039 19.4952621,15.8877431 17.87,15.96 C16.5362661,15.9369652 15.2519234,16.4642713 14.319154,17.417853 C13.3863846,18.3714347 12.8875439,19.667099 12.94,21 C12.94,27.69 21.03,32.44 22.94,33.49 C25.6128079,32.0520327 28.0179675,30.1644391 30.05,27.91 C30.2822226,27.6384781 30.6416604,27.5114709 30.9929165,27.5768207 C31.3441727,27.6421704 31.633883,27.889949 31.7529165,28.2268207 C31.87195,28.5636923 31.8022227,28.9384782 31.57,29.21 C29.2534989,31.7946726 26.4805285,33.9303344 23.39,35.51 C23.2528673,35.5764197 23.1023698,35.6106236 22.95,35.61 C22.7913468,35.6093288 22.634613,35.5752563 22.49,35.51 C22.06,35.29 10.94,29.82 10.94,21 C10.868502,19.1361837 11.565724,17.3248188 12.8684413,15.989959 C14.1711586,14.6550992 15.9649949,13.9139428 17.83,13.94 C19.7171004,13.8653798 21.5630394,14.504496 23,15.73 C24.4416139,14.5413903 26.262,13.9097554 28.13,13.95 C29.9915095,13.9238031 31.7818917,14.6642066 33.0811768,15.9975341 C34.3804619,17.3308616 35.0743226,19.1397903 35,21 C35,21.5522847 34.5522847,22 34,22 L34,22 Z" id="Shape" fill="#9B9B9B"></path>
            </g>
        </g>
    </g>
</svg>