<?xml version="1.0" encoding="UTF-8"?>
<svg width="38px" height="38px" viewBox="0 0 38 38" version="1.1" xmlns="http://www.w3.org/2000/svg" xmlns:xlink="http://www.w3.org/1999/xlink">
    <!-- Generator: Sketch 40.3 (33839) - http://www.bohemiancoding.com/sketch -->
    <title>icon_gps_large</title>
    <desc>Created with Sketch.</desc>
    <defs></defs>
    <g id="Page-1" stroke="none" stroke-width="1" fill="none" fill-rule="evenodd">
        <g id="icon_gps_large" transform="translate(-1.000000, -2.000000)">
            <g id="Layer_1">
                <rect id="Rectangle-path" x="0" y="0" width="40" height="47"></rect>
                <path d="M20,2 C9.506,2 1,10.507 1,21 C1,31.493 9.506,40 20,40 C30.493,40 39,31.493 39,21 C39,10.507 30.493,2 20,2 L20,2 Z" id="Shape" fill="#9B9B9B"></path>
                <path d="M11.6152344,24.0454079 C11.6804,25.0028413 12.08016,25.769779 12.8145265,26.3462441 C13.5488929,26.9227093 14.4900208,27.2109375 15.6379383,27.2109375 C16.8861106,27.2109375 17.8748588,26.9214561 18.6042125,26.3424846 C19.3335662,25.7635131 19.6982376,24.9777778 19.6982376,23.9852553 C19.6982376,23.2082805 19.452617,22.5867101 18.9613685,22.1205252 C18.4701199,21.6543404 17.6630809,21.2808968 16.540227,21.0001834 L15.4048471,20.6994205 C14.6679742,20.5089364 14.1378849,20.2821133 13.8145632,20.0189444 C13.4912414,19.7557755 13.329583,19.4186738 13.329583,19.0076291 C13.329583,18.4762786 13.5513934,18.0451894 13.9950209,17.7143486 C14.4386484,17.3835077 15.0113454,17.2180898 15.713129,17.2180898 C16.4199254,17.2180898 16.9938756,17.3860141 17.4349967,17.7218677 C17.8761178,18.0577213 18.1267511,18.5163801 18.186904,19.097858 L19.5403371,19.097858 C19.5102606,18.1855393 19.1418298,17.4411585 18.4350334,16.8646934 C17.728237,16.2882282 16.8359826,16 15.7582435,16 C14.6303769,16 13.7092997,16.2857219 12.9949842,16.8571743 C12.2806687,17.4286267 11.9235164,18.1654884 11.9235164,19.0677817 C11.9235164,20.4863872 12.885948,21.4412999 14.8108403,21.9325484 L16.2018688,22.2934639 C16.9337288,22.4789353 17.4663245,22.7195432 17.7996717,23.0152949 C18.133019,23.3110466 18.2996901,23.6895028 18.2996901,24.1506749 C18.2996901,24.6820253 18.0603353,25.1218867 17.5816186,25.4702722 C17.1029019,25.8186576 16.4976226,25.9928477 15.7657625,25.9928477 C14.9938005,25.9928477 14.3521794,25.8148981 13.8408799,25.4589935 C13.3295804,25.103089 13.0413522,24.6318985 12.9761865,24.0454079 L12.769412,24.0454079 L12.2957105,24.0454079 L11.8220089,24.0454079 L11.6152344,24.0454079 L11.6152344,24.0454079 Z M20.6757171,19.308392 L20.6757171,19.3159111 L21.9840357,19.3159111 L21.9840357,19.308392 C21.9840357,18.7018504 22.197074,18.1955713 22.6231569,17.7895393 C23.0492398,17.3835074 23.5805823,17.1804944 24.2172003,17.1804944 C24.8137164,17.1804944 25.3212488,17.3634567 25.7398126,17.7293867 C26.1583764,18.0953168 26.3676551,18.5389376 26.3676551,19.0602626 C26.3676551,19.5114092 26.2498575,19.9349794 26.0142587,20.3309859 C25.7786599,20.7269924 25.2949378,21.3084615 24.5630777,22.0754108 L20.7433887,26.0981147 L20.7433887,27.0304798 L27.901546,27.0304798 L27.901546,25.8274281 L22.6156378,25.8274281 L22.6156378,25.7973518 L25.3600994,22.9626614 C26.2674054,22.025279 26.8877227,21.2783919 27.2210699,20.7219777 C27.5544171,20.1655635 27.7210882,19.5840944 27.7210882,18.9775528 C27.7210882,18.1454379 27.3864929,17.4411585 26.717292,16.8646934 C26.0480912,16.2882282 25.2272673,16 24.2547957,16 C23.2321967,16 22.3800436,16.3145447 21.698311,16.9436436 C21.0165783,17.5727425 20.6757171,18.3609841 20.6757171,19.308392 L20.6757171,19.308392 Z" id="S2" fill-opacity="0.99" fill="#FFFFFF"></path>
            </g>
        </g>
    </g>
</svg>