<?xml version="1.0" encoding="UTF-8"?>
<svg width="38px" height="38px" viewBox="0 0 38 38" version="1.1" xmlns="http://www.w3.org/2000/svg" xmlns:xlink="http://www.w3.org/1999/xlink">
    <!-- Generator: Sketch 40.3 (33839) - http://www.bohemiancoding.com/sketch -->
    <title>icon_gps_large copy 2</title>
    <desc>Created with Sketch.</desc>
    <defs></defs>
    <g id="Page-1" stroke="none" stroke-width="1" fill="none" fill-rule="evenodd">
        <g id="icon_gps_large-copy-2" transform="translate(-1.000000, -2.000000)">
            <g id="Layer_1">
                <rect id="Rectangle-path" x="0" y="0" width="40" height="47"></rect>
                <path d="M1,21 C1,31.493 9.506,40 20,40 C30.493,40 39,31.493 39,21 C39,10.507 30.493,2 20,2 C9.506,2 1,10.507 1,21 Z" id="Shape" fill="#9B9B9B"></path>
                <g id="Unknown" transform="translate(8.000000, 11.000000)">
                    <g id="Layer_1">
                        <g id="Group">
                            <path d="M4.6385,5.46242424 L1,5.46727273 C0.44771525,5.46727273 0,6.00995788 0,6.67939394 L0,13.3333333 C0,14.0027694 0.44771525,14.5454545 1,14.5454545 L4.638,14.5454545 C4.87190067,14.5455821 5.09836429,14.6450889 5.278,14.8266667 L10.178,19.7781818 C10.3270408,19.9302612 10.5353855,19.96356 10.7118538,19.8635054 C10.8883221,19.7634507 11.0007756,19.5482645 11,19.3121212 L11,0.689090909 C11.0000892,0.453761992 10.8877829,0.239644813 10.7119412,0.139893038 C10.5360995,0.0401412622 10.3285153,0.0727904868 10.1795,0.223636364 L5.2795,5.18121212 C5.09960041,5.36305669 4.87274427,5.4625804 4.6385,5.46242424 L4.6385,5.46242424 Z" id="_Path_" fill="#FFFFFF"></path>
                            <path d="M18.8525,1.20727273 C20.7829952,3.54717286 21.8675427,6.72081496 21.8675427,10.03 C21.8675427,13.339185 20.7829952,16.5128271 18.8525,18.8527273" id="_Path_2" stroke="#FFFFFF" stroke-width="1.838"></path>
                            <path d="M16.706,3.52909091 C18.1284912,5.25319492 18.9276472,7.59165842 18.9276472,10.03 C18.9276472,12.4683416 18.1284912,14.8068051 16.706,16.5309091" id="_Path_3" stroke="#FFFFFF" stroke-width="1.838"></path>
                            <path d="M14.6385,6.31515152 C15.4513739,7.30035732 15.9080484,8.63664074 15.9080484,10.03 C15.9080484,11.4233593 15.4513739,12.7596427 14.6385,13.7448485" id="_Path_4" stroke="#FFFFFF" stroke-width="1.838"></path>
                        </g>
                    </g>
                </g>
            </g>
        </g>
    </g>
</svg>