<?xml version="1.0" encoding="UTF-8"?>
<svg width="38px" height="38px" viewBox="0 0 38 38" version="1.1" xmlns="http://www.w3.org/2000/svg" xmlns:xlink="http://www.w3.org/1999/xlink">
    <!-- Generator: Sketch 40.3 (33839) - http://www.bohemiancoding.com/sketch -->
    <title>icon_water_resistant_large</title>
    <desc>Created with Sketch.</desc>
    <defs></defs>
    <g id="Page-1" stroke="none" stroke-width="1" fill="none" fill-rule="evenodd">
        <g id="icon_water_resistant_large" fill="#9B9B9B">
            <g id="Layer_1">
                <path d="M19,0 C8.507,0 0,8.506 0,19 C0,29.494 8.507,38 19,38 C29.493,38 38,29.494 38,19 C38,8.506 29.494,0 19,0 L19,0 Z M31.233,27.692 C29.719,27.692 28.28,27.039 27.155,25.868 C26.03,27.039 24.59,27.692 23.077,27.692 C21.564,27.692 20.124,27.039 18.999,25.868 C17.874,27.038 16.434,27.692 14.921,27.692 C13.408,27.692 11.968,27.038 10.843,25.868 C9.718,27.039 8.278,27.692 6.766,27.692 C6.283,27.692 5.891,27.3 5.891,26.817 C5.891,26.334 6.283,25.942 6.766,25.942 C8.041,25.942 9.265,25.23 10.124,23.989 C10.288,23.753 10.557,23.612 10.844,23.612 L10.844,23.612 C11.131,23.612 11.4,23.753 11.563,23.989 C12.42,25.23 13.644,25.942 14.92,25.942 C16.196,25.942 17.42,25.23 18.278,23.989 C18.442,23.753 18.711,23.612 18.998,23.612 C19.286,23.612 19.554,23.753 19.718,23.989 C20.576,25.23 21.8,25.942 23.076,25.942 C24.352,25.942 25.576,25.23 26.434,23.989 C26.598,23.753 26.867,23.612 27.154,23.612 C27.442,23.612 27.711,23.753 27.874,23.989 C28.731,25.23 29.956,25.942 31.232,25.942 C31.715,25.942 32.107,26.334 32.107,26.817 C32.108,27.301 31.716,27.692 31.233,27.692 L31.233,27.692 Z M31.233,21.04 C29.719,21.04 28.279,20.386 27.155,19.215 C26.03,20.386 24.59,21.04 23.077,21.04 C21.564,21.04 20.124,20.386 18.999,19.215 C17.874,20.386 16.434,21.04 14.921,21.04 C13.408,21.04 11.968,20.386 10.843,19.215 C9.72,20.386 8.28,21.04 6.768,21.04 C6.285,21.04 5.893,20.648 5.893,20.165 C5.893,19.682 6.285,19.29 6.768,19.29 C8.043,19.29 9.268,18.578 10.126,17.337 C10.29,17.101 10.559,16.96 10.846,16.96 L10.846,16.96 C11.133,16.96 11.402,17.101 11.565,17.338 C12.422,18.579 13.646,19.291 14.922,19.291 C16.198,19.291 17.422,18.579 18.28,17.338 C18.444,17.102 18.713,16.961 19,16.961 C19.288,16.961 19.557,17.102 19.72,17.338 C20.578,18.579 21.802,19.291 23.078,19.291 C24.354,19.291 25.578,18.579 26.436,17.338 C26.6,17.102 26.869,16.961 27.156,16.961 C27.444,16.961 27.713,17.102 27.876,17.339 C28.733,18.58 29.958,19.292 31.234,19.292 C31.717,19.292 32.109,19.684 32.109,20.167 C32.108,20.649 31.716,21.04 31.233,21.04 L31.233,21.04 Z M31.233,14.388 C29.719,14.388 28.279,13.734 27.155,12.563 C26.03,13.734 24.59,14.388 23.077,14.388 C21.564,14.388 20.124,13.734 18.999,12.563 C17.874,13.734 16.434,14.388 14.921,14.388 C13.408,14.388 11.968,13.734 10.843,12.563 C9.718,13.734 8.278,14.388 6.766,14.388 C6.283,14.388 5.891,13.996 5.891,13.513 C5.891,13.03 6.283,12.638 6.766,12.638 C8.041,12.638 9.266,11.926 10.124,10.685 C10.288,10.449 10.557,10.308 10.844,10.308 L10.844,10.308 C11.131,10.308 11.4,10.449 11.563,10.686 C12.42,11.927 13.644,12.639 14.92,12.639 C16.196,12.639 17.42,11.927 18.278,10.686 C18.442,10.45 18.711,10.309 18.998,10.309 C19.286,10.309 19.555,10.45 19.718,10.686 C20.576,11.927 21.8,12.639 23.076,12.639 C24.352,12.639 25.576,11.927 26.434,10.686 C26.598,10.45 26.867,10.309 27.154,10.309 C27.442,10.309 27.711,10.45 27.874,10.687 C28.731,11.928 29.956,12.64 31.232,12.64 C31.715,12.64 32.107,13.032 32.107,13.515 C32.107,13.998 31.716,14.388 31.233,14.388 L31.233,14.388 Z" id="Shape"></path>
            </g>
        </g>
    </g>
</svg>