<?xml version="1.0" encoding="utf-8"?>
<!-- Generator: Adobe Illustrator 19.0.0, SVG Export Plug-In . SVG Version: 6.00 Build 0)  -->
<svg version="1.1" id="Слой_1" xmlns="http://www.w3.org/2000/svg" xmlns:xlink="http://www.w3.org/1999/xlink" x="0px" y="0px"
	 viewBox="-180 57 38 38" style="enable-background:new -180 57 38 38;" xml:space="preserve">
<style type="text/css">
	.st0{fill:none;}
	.st1{fill:#9B9B9B;}
	.st2{fill:#FFFFFF;}
</style>
<title>icon_gps_large</title>
<desc>Created with Sketch.</desc>
<g>
	<g>
		<g>
			<g id="Page-1">
				<g id="icon_gps_large" transform="translate(-1.000000, -2.000000)">
					<g id="Layer_1">
						<rect id="Rectangle-path" x="-180" y="57" class="st0" width="40" height="47"/>
						<path id="Shape" class="st1" d="M-160,59c-10.5,0-19,8.5-19,19s8.5,19,19,19s19-8.5,19-19S-149.5,59-160,59L-160,59z"/>
					</g>
				</g>
			</g>
		</g>
	</g>
	<g>
		<path class="st2" d="M-174.1,71.6L-174.1,71.6l-2.1,1.1l-0.3-1.2l2.6-1.4h1.4v11.7h-1.5V71.6z"/>
		<path class="st2" d="M-163.5,81.8v-3.2h-5.4v-1l5.2-7.5h1.7v7.3h1.6v1.2h-1.6v3.2H-163.5z M-163.5,77.4v-3.9c0-0.6,0-1.2,0.1-1.8
			h-0.1c-0.4,0.7-0.6,1.2-1,1.7l-2.9,4v0H-163.5z"/>
		<path class="st2" d="M-153.8,73.4c0,2.5-1.3,3.7-2.8,3.7c-1.5,0-2.7-1.2-2.7-3.5c0-2.3,1.3-3.7,2.8-3.7
			C-154.9,69.9-153.8,71.2-153.8,73.4z M-158.1,73.5c0,1.5,0.5,2.6,1.5,2.6c1,0,1.5-1.1,1.5-2.7c0-1.4-0.4-2.6-1.5-2.6
			C-157.6,70.9-158.1,72.1-158.1,73.5z M-156.8,82l6.9-12.1h1l-6.9,12.1H-156.8z M-146.2,78.3c0,2.5-1.3,3.7-2.8,3.7
			c-1.5,0-2.7-1.2-2.7-3.5c0-2.4,1.3-3.7,2.8-3.7C-147.3,74.8-146.2,76-146.2,78.3z M-150.5,78.4c0,1.5,0.6,2.6,1.5,2.6
			c1,0,1.5-1.1,1.5-2.7c0-1.4-0.4-2.6-1.5-2.6C-150,75.7-150.5,76.9-150.5,78.4z"/>
	</g>
</g>
</svg>
