<?xml version="1.0" encoding="utf-8"?>
<!-- Generator: Adobe Illustrator 19.0.0, SVG Export Plug-In . SVG Version: 6.00 Build 0)  -->
<svg version="1.1" id="Слой_1" xmlns="http://www.w3.org/2000/svg" xmlns:xlink="http://www.w3.org/1999/xlink" x="0px" y="0px"
	 viewBox="-180 57 38 38" style="enable-background:new -180 57 38 38;" xml:space="preserve">
<style type="text/css">
	.st0{fill:none;}
	.st1{fill:#9B9B9B;}
	.st2{fill:#FFFFFF;}
</style>
<title>icon_gps_large</title>
<desc>Created with Sketch.</desc>
<g>
	<g>
		<g>
			<g id="Page-1">
				<g id="icon_gps_large" transform="translate(-1.000000, -2.000000)">
					<g id="Layer_1">
						<rect id="Rectangle-path" x="-180" y="57" class="st0" width="40" height="47"/>
						<path id="Shape" class="st1" d="M-160,59c-10.5,0-19,8.5-19,19s8.5,19,19,19s19-8.5,19-19S-149.5,59-160,59L-160,59z"/>
					</g>
				</g>
			</g>
		</g>
	</g>
	<g>
		<path class="st2" d="M-171.6,83.1v-1.3l1.7-1.6c4-3.8,5.8-5.8,5.8-8.2c0-1.6-0.8-3-3.1-3c-1.4,0-2.6,0.7-3.3,1.3l-0.7-1.5
			c1.1-0.9,2.6-1.6,4.4-1.6c3.4,0,4.8,2.3,4.8,4.5c0,2.9-2.1,5.2-5.4,8.4l-1.2,1.2v0h7v1.8H-171.6z"/>
		<path class="st2" d="M-157.7,71.5l1.7,2.5c0.4,0.6,0.8,1.2,1.2,1.9h0.1c0.4-0.7,0.8-1.3,1.2-1.9l1.6-2.5h2.3l-4,5.6l4.1,6h-2.4
			l-1.7-2.6c-0.5-0.7-0.8-1.3-1.2-2h0c-0.4,0.7-0.8,1.3-1.2,2l-1.7,2.6h-2.3l4.1-5.9l-3.9-5.7H-157.7z"/>
	</g>
</g>
</svg>
