<?xml version="1.0" encoding="utf-8"?>
<!-- Generator: Adobe Illustrator 19.0.0, SVG Export Plug-In . SVG Version: 6.00 Build 0)  -->
<svg version="1.1" id="Layer_1" xmlns="http://www.w3.org/2000/svg" xmlns:xlink="http://www.w3.org/1999/xlink" x="0px" y="0px"
	 viewBox="-174 48 51 56" style="enable-background:new -174 48 51 56;" xml:space="preserve">
<style type="text/css">
	.st0{fill:none;stroke:#40B549;stroke-width:1.5;stroke-linecap:round;stroke-miterlimit:10;}
	.st1{fill:none;stroke:#C73A32;stroke-width:1.5;stroke-linecap:round;stroke-miterlimit:10;}
	.st2{fill:none;stroke:#84C441;stroke-width:1.5;stroke-linecap:round;stroke-miterlimit:10;}
	.st3{fill:none;stroke:#A93E66;stroke-width:1.5;stroke-linecap:round;stroke-miterlimit:10;}
	.st4{fill:none;stroke:#CBDB2A;stroke-width:1.5;stroke-linecap:round;stroke-miterlimit:10;}
	.st5{fill:none;stroke:#953F7A;stroke-width:1.5;stroke-linecap:round;stroke-miterlimit:10;}
	.st6{fill:none;stroke:#ECE824;stroke-width:1.5;stroke-linecap:round;stroke-miterlimit:10;}
	.st7{fill:none;stroke:#53357E;stroke-width:1.5;stroke-linecap:round;stroke-miterlimit:10;}
	.st8{fill:none;stroke:#991B4A;stroke-width:1.5;stroke-linecap:round;stroke-miterlimit:10;}
	.st9{fill:none;stroke:#C3DA42;stroke-width:1.5;stroke-linecap:round;stroke-miterlimit:10;}
	.st10{fill:none;stroke:#49CEEE;stroke-width:1.5;stroke-linecap:round;stroke-miterlimit:10;}
	.st11{fill:none;stroke:#FFCB06;stroke-width:1.5;stroke-linecap:round;stroke-miterlimit:10;}
	.st12{fill:none;stroke:#FAA31A;stroke-width:1.5;stroke-linecap:round;stroke-miterlimit:10;}
	.st13{fill:none;stroke:#51C3BF;stroke-width:1.5;stroke-linecap:round;stroke-miterlimit:10;}
	.st14{fill:none;stroke:#80CDED;stroke-width:1.5;stroke-linecap:round;stroke-miterlimit:10;}
	.st15{fill:none;stroke:#FEDB00;stroke-width:1.5;stroke-linecap:round;stroke-miterlimit:10;}
	.st16{fill:none;stroke:#50C6C3;stroke-width:1.5;stroke-linecap:round;stroke-miterlimit:10;}
	.st17{fill:none;stroke:#F47920;stroke-width:1.5;stroke-linecap:round;stroke-miterlimit:10;}
	.st18{fill:none;stroke:#F15822;stroke-width:1.5;stroke-linecap:round;stroke-miterlimit:10;}
	.st19{fill:none;stroke:#08B097;stroke-width:1.5;stroke-linecap:round;stroke-miterlimit:10;}
	.st20{fill:#FEE600;}
	.st21{fill:#3A5EAB;}
	.st22{fill:#0FB15C;}
	.st23{fill:#EE2C24;}
</style>
<title>Vector Smart Object3</title>
<g>
	<line id="_Path_" class="st0" x1="-138.5" y1="73.3" x2="-128.4" y2="70.5"/>
	<line id="_Path_2" class="st1" x1="-168.9" y1="81.7" x2="-158.8" y2="78.9"/>
	<line id="_Path_3" class="st2" x1="-139.5" y1="70.8" x2="-130.5" y2="65.6"/>
	<line id="_Path_4" class="st3" x1="-166.8" y1="86.6" x2="-157.7" y2="81.3"/>
	<line id="_Path_5" class="st4" x1="-143.4" y1="67.1" x2="-138.1" y2="57.9"/>
	<line id="_Path_6" class="st5" x1="-159.2" y1="94.3" x2="-153.9" y2="85.2"/>
	<line id="_Path_7" class="st6" x1="-145.9" y1="66" x2="-143.2" y2="55.8"/>
	<line id="_Path_8" class="st7" x1="-154.1" y1="96.4" x2="-151.4" y2="86.2"/>
	<line id="_Path_9" class="st8" x1="-163.5" y1="90.9" x2="-156" y2="83.5"/>
	<line id="_Path_10" class="st9" x1="-141.2" y1="68.7" x2="-133.8" y2="61.2"/>
	<line id="_Path_11" class="st10" x1="-143.4" y1="85.2" x2="-138.2" y2="94.3"/>
	<line id="_Path_12" class="st11" x1="-159.1" y1="57.9" x2="-153.9" y2="67.1"/>
	<line id="_Path_13" class="st12" x1="-163.5" y1="61.2" x2="-156.1" y2="68.7"/>
	<line id="_Path_14" class="st13" x1="-141.2" y1="83.5" x2="-133.8" y2="90.9"/>
	<line id="_Path_15" class="st14" x1="-145.9" y1="86.2" x2="-143.3" y2="96.4"/>
	<line id="_Path_16" class="st15" x1="-154" y1="55.8" x2="-151.3" y2="66"/>
	<line id="_Path_17" class="st16" x1="-139.6" y1="81.4" x2="-130.5" y2="86.6"/>
	<line id="_Path_18" class="st17" x1="-166.8" y1="65.6" x2="-157.7" y2="70.8"/>
	<line id="_Path_19" class="st18" x1="-169" y1="70.7" x2="-158.8" y2="73.4"/>
	<line id="_Path_20" class="st19" x1="-138.5" y1="78.8" x2="-128.4" y2="81.4"/>
	<path id="_Rectangle_" class="st20" d="M-148.8,54.2L-148.8,54.2c0.4,0,0.8,0.3,0.8,0.8v10.5c0,0.4-0.3,0.8-0.8,0.8l0,0
		c-0.4,0-0.8-0.3-0.8-0.8V55C-149.5,54.6-149.2,54.2-148.8,54.2z"/>
	<path id="_Rectangle_2" class="st21" d="M-148.8,85.8L-148.8,85.8c0.4,0,0.8,0.3,0.8,0.8V97c0,0.4-0.3,0.8-0.8,0.8l0,0
		c-0.4,0-0.8-0.3-0.8-0.8V86.5C-149.5,86.1-149.2,85.8-148.8,85.8z"/>
	<path id="_Rectangle_3" class="st22" d="M-139,76L-139,76c0-0.4,0.3-0.8,0.8-0.8h10.5c0.4,0,0.8,0.3,0.8,0.8l0,0
		c0,0.4-0.3,0.8-0.8,0.8h-10.5C-138.7,76.8-139,76.4-139,76z"/>
	<path id="_Rectangle_4" class="st23" d="M-170,76L-170,76c0-0.4,0.3-0.8,0.8-0.8h10.5c0.4,0,0.8,0.3,0.8,0.8l0,0
		c0,0.4-0.3,0.8-0.8,0.8h-10.5C-169.7,76.8-170,76.4-170,76z"/>
</g>
</svg>
