<?xml version="1.0" encoding="utf-8"?>
<!-- Generator: Adobe Illustrator 19.0.0, SVG Export Plug-In . SVG Version: 6.00 Build 0)  -->
<svg version="1.1" id="Layer_1" xmlns="http://www.w3.org/2000/svg" xmlns:xlink="http://www.w3.org/1999/xlink" x="0px" y="0px"
	 viewBox="-175.6 55 42.1 42.1" style="enable-background:new -175.6 55 42.1 42.1;" xml:space="preserve">
<style type="text/css">
	.st0{fill:#9B9B9B;}
	.st1{fill:#FFFFFF;}
</style>
<title>Vector Smart Object1</title>
<g>
	<g>
		<path class="st0" d="M-170.9,57h33c1.4,0,2.5,1.1,2.5,2.5v33c0,1.4-1.1,2.5-2.5,2.5h-33c-1.4,0-2.5-1.1-2.5-2.5v-33
			C-173.5,58.1-172.4,57-170.9,57z"/>
		<path class="st0" d="M-142.2,55L-142.2,55c0.4,0,0.8,0.3,0.8,0.8v1.5c0,0.4-0.3,0.8-0.8,0.8s-0.8-0.4-0.8-0.9v-1.4
			C-143,55.3-142.7,55-142.2,55z"/>
		<path class="st0" d="M-145.8,55L-145.8,55c0.6,0,0.8,0.3,0.8,0.8v1.5c0,0.4-0.3,0.8-0.8,0.8s-0.8-0.3-0.8-0.8v-1.5
			C-146.5,55.3-146.2,55-145.8,55z"/>
		<path class="st0" d="M-149.2,55L-149.2,55c0.4,0,0.8,0.3,0.8,0.8v1.5c0,0.4-0.3,0.8-0.8,0.8s-0.8-0.4-0.8-0.9v-1.4
			C-150,55.3-149.7,55-149.2,55z"/>
		<path class="st0" d="M-152.8,55L-152.8,55c0.6,0,0.8,0.3,0.8,0.8v1.5c0,0.4-0.3,0.8-0.8,0.8s-0.8-0.3-0.8-0.8v-1.5
			C-153.5,55.3-153.2,55-152.8,55z"/>
		<path class="st0" d="M-156.2,55L-156.2,55c0.4,0,0.8,0.3,0.8,0.8v1.5c0,0.4-0.3,0.8-0.8,0.8s-0.8-0.4-0.8-0.9v-1.4
			C-157,55.3-156.7,55-156.2,55z"/>
		<path class="st0" d="M-159.8,55L-159.8,55c0.6,0,0.8,0.3,0.8,0.8v1.5c0,0.4-0.3,0.8-0.8,0.8s-0.8-0.3-0.8-0.8v-1.5
			C-160.5,55.3-160.2,55-159.8,55z"/>
		<path class="st0" d="M-163.1,55L-163.1,55c0.4,0,0.8,0.3,0.8,0.8v1.5c0,0.4-0.3,0.8-0.8,0.8s-0.8-0.4-0.8-0.9v-1.4
			C-163.9,55.3-163.6,55-163.1,55z"/>
		<path class="st0" d="M-166.8,55L-166.8,55c0.5,0,0.8,0.3,0.8,0.8v1.5c0,0.4-0.3,0.8-0.8,0.8s-0.6-0.4-0.6-0.9v-1.4
			C-167.4,55.3-167.1,55-166.8,55z"/>
		<path class="st0" d="M-142.2,94L-142.2,94c0.4,0,0.8,0.3,0.8,0.8v1.5c0,0.4-0.3,0.8-0.8,0.8s-0.8-0.4-0.8-0.9v-1.5
			C-143,94.3-142.7,94-142.2,94z"/>
		<path class="st0" d="M-145.8,94L-145.8,94c0.4,0,0.8,0.3,0.8,0.8v1.5c0,0.4-0.3,0.8-0.8,0.8s-0.8-0.3-0.8-0.8v-1.5
			C-146.5,94.3-146.2,94-145.8,94z"/>
		<path class="st0" d="M-149.2,94L-149.2,94c0.4,0,0.8,0.3,0.8,0.8v1.5c0,0.4-0.3,0.8-0.8,0.8s-0.8-0.4-0.8-0.9v-1.5
			C-150,94.3-149.7,94-149.2,94z"/>
		<path class="st0" d="M-152.8,94L-152.8,94c0.4,0,0.8,0.3,0.8,0.8v1.5c0,0.4-0.3,0.8-0.8,0.8s-0.8-0.3-0.8-0.8v-1.5
			C-153.5,94.3-153.2,94-152.8,94z"/>
		<path class="st0" d="M-156.2,94L-156.2,94c0.4,0,0.8,0.3,0.8,0.8v1.5c0,0.4-0.3,0.8-0.8,0.8s-0.8-0.4-0.8-0.9v-1.5
			C-157,94.3-156.7,94-156.2,94z"/>
		<path class="st0" d="M-159.8,94L-159.8,94c0.4,0,0.8,0.3,0.8,0.8v1.5c0,0.4-0.3,0.8-0.8,0.8s-0.8-0.3-0.8-0.8v-1.5
			C-160.5,94.3-160.2,94-159.8,94z"/>
		<path class="st0" d="M-163.1,94L-163.1,94c0.4,0,0.8,0.3,0.8,0.8v1.5c0,0.4-0.3,0.8-0.8,0.8s-0.8-0.4-0.8-0.9v-1.5
			C-163.9,94.3-163.6,94-163.1,94z"/>
		<path class="st0" d="M-166.8,94L-166.8,94c0.4,0,0.8,0.3,0.8,0.8v1.5c0,0.4-0.3,0.8-0.8,0.8s-0.8-0.3-0.8-0.8v-1.5
			C-167.4,94.3-167.1,94-166.8,94z"/>
		<path class="st0" d="M-133.5,63.8L-133.5,63.8c0,0.4-0.3,0.8-0.8,0.8h-1.5c-0.4,0-0.8-0.3-0.8-0.8c0-0.5,0.3-0.8,0.8-0.8h1.5
			C-133.8,63-133.5,63.3-133.5,63.8z"/>
		<path class="st0" d="M-133.5,67.2L-133.5,67.2c0,0.4-0.3,0.8-0.8,0.8h-1.5c-0.4,0-0.8-0.3-0.8-0.8s0.3-0.8,0.8-0.8h1.5
			C-133.8,66.5-133.5,66.8-133.5,67.2z"/>
		<path class="st0" d="M-133.5,70.8L-133.5,70.8c0,0.4-0.3,0.8-0.8,0.8h-1.5c-0.4,0-0.8-0.3-0.8-0.8s0.3-0.8,0.8-0.8h1.5
			C-133.8,70-133.5,70.3-133.5,70.8z"/>
		<path class="st0" d="M-133.5,74.2L-133.5,74.2c0,0.4-0.3,0.8-0.8,0.8h-1.5c-0.4,0-0.8-0.3-0.8-0.8s0.3-0.8,0.8-0.8h1.5
			C-133.8,73.5-133.5,73.8-133.5,74.2z"/>
		<path class="st0" d="M-133.5,77.8L-133.5,77.8c0,0.4-0.3,0.8-0.8,0.8h-1.5c-0.4,0-0.8-0.3-0.8-0.8s0.3-0.8,0.8-0.8h1.5
			C-133.8,77-133.5,77.3-133.5,77.8z"/>
		<path class="st0" d="M-133.5,81.2L-133.5,81.2c0,0.4-0.3,0.8-0.8,0.8h-1.5c-0.4,0-0.8-0.3-0.8-0.8s0.3-0.8,0.8-0.8h1.5
			C-133.8,80.5-133.5,80.8-133.5,81.2z"/>
		<path class="st0" d="M-133.5,84.8L-133.5,84.8c0,0.4-0.3,0.8-0.8,0.8h-1.5c-0.4,0-0.8-0.3-0.8-0.8s0.3-0.8,0.8-0.8h1.5
			C-133.8,84-133.5,84.3-133.5,84.8z"/>
		<path class="st0" d="M-133.5,88.2L-133.5,88.2c0,0.4-0.3,0.8-0.8,0.8h-1.5c-0.4,0-0.8-0.3-0.8-0.8s0.3-0.8,0.8-0.8h1.5
			C-133.8,87.5-133.5,87.8-133.5,88.2z"/>
		<path class="st0" d="M-172.4,63.8L-172.4,63.8c0,0.4-0.3,0.8-0.8,0.8h-1.6c-0.4,0-0.8-0.3-0.8-0.8c0-0.5,0.4-0.8,0.8-0.8h1.5
			C-172.8,63-172.4,63.3-172.4,63.8z"/>
		<path class="st0" d="M-172.4,67.2L-172.4,67.2c0,0.4-0.3,0.8-0.8,0.8h-1.6c-0.4,0-0.8-0.3-0.8-0.8s0.3-0.8,0.8-0.8h1.5
			C-172.8,66.5-172.4,66.8-172.4,67.2z"/>
		<path class="st0" d="M-172.4,70.8L-172.4,70.8c0,0.4-0.3,0.8-0.8,0.8h-1.6c-0.4,0-0.8-0.3-0.8-0.8s0.4-0.8,0.8-0.8h1.5
			C-172.8,70-172.4,70.3-172.4,70.8z"/>
		<path class="st0" d="M-172.4,74.2L-172.4,74.2c0,0.4-0.3,0.8-0.8,0.8h-1.6c-0.4,0-0.8-0.3-0.8-0.8s0.3-0.8,0.8-0.8h1.5
			C-172.8,73.5-172.4,73.8-172.4,74.2z"/>
		<path class="st0" d="M-172.4,77.8L-172.4,77.8c0,0.4-0.3,0.8-0.8,0.8h-1.6c-0.4,0-0.8-0.3-0.8-0.8s0.4-0.8,0.8-0.8h1.5
			C-172.8,77-172.4,77.3-172.4,77.8z"/>
		<path class="st0" d="M-172.4,81.2L-172.4,81.2c0,0.4-0.3,0.8-0.8,0.8h-1.6c-0.4,0-0.8-0.3-0.8-0.8s0.3-0.8,0.8-0.8h1.5
			C-172.8,80.5-172.4,80.8-172.4,81.2z"/>
		<path class="st0" d="M-172.4,84.8L-172.4,84.8c0,0.4-0.3,0.8-0.8,0.8h-1.6c-0.4,0-0.8-0.3-0.8-0.8s0.4-0.8,0.8-0.8h1.5
			C-172.8,84-172.4,84.3-172.4,84.8z"/>
		<path class="st0" d="M-172.4,88.2L-172.4,88.2c0,0.4-0.3,0.8-0.8,0.8h-1.6c-0.4,0-0.8-0.3-0.8-0.8s0.3-0.8,0.8-0.8h1.5
			C-172.8,87.5-172.4,87.8-172.4,88.2z"/>
	</g>
	<g>
		<path class="st1" d="M-160.5,81.6c-0.6,0.3-1.7,0.6-3.2,0.6c-3.4,0-6-2.2-6-6.1c0-3.8,2.6-6.4,6.3-6.4c1.5,0,2.5,0.3,2.9,0.5
			l-0.4,1.3c-0.6-0.3-1.4-0.5-2.4-0.5c-2.8,0-4.7,1.8-4.7,5c0,3,1.7,4.9,4.7,4.9c1,0,1.9-0.2,2.6-0.5L-160.5,81.6z"/>
		<path class="st1" d="M-158.5,70c0.8-0.1,1.7-0.2,3-0.2c1.5,0,2.7,0.4,3.4,1c0.7,0.6,1.1,1.5,1.1,2.5c0,1.1-0.3,2-0.9,2.6
			c-0.8,0.9-2.2,1.3-3.7,1.3c-0.5,0-0.9,0-1.3-0.1V82h-1.6V70z M-157,75.9c0.3,0.1,0.8,0.1,1.3,0.1c1.9,0,3-0.9,3-2.6
			c0-1.6-1.1-2.4-2.9-2.4c-0.7,0-1.2,0.1-1.5,0.1V75.9z"/>
		<path class="st1" d="M-147.4,69.9V77c0,2.7,1.2,3.9,2.8,3.9c1.8,0,3-1.2,3-3.9v-7.2h1.6v7.1c0,3.7-2,5.3-4.6,5.3
			c-2.5,0-4.4-1.4-4.4-5.2v-7.1H-147.4z"/>
	</g>
</g>
</svg>
