<?xml version="1.0" encoding="utf-8"?>
<!-- Generator: Adobe Illustrator 19.0.0, SVG Export Plug-In . SVG Version: 6.00 Build 0)  -->
<svg version="1.1" id="Layer_1" xmlns="http://www.w3.org/2000/svg" xmlns:xlink="http://www.w3.org/1999/xlink" x="0px" y="0px"
	 viewBox="-178 54.9 42.1 42.1" style="enable-background:new -178 54.9 42.1 42.1;" xml:space="preserve">
<style type="text/css">
	.st0{fill:#9B9B9B;}
	.st1{fill:#FFFFFF;}
</style>
<title>Vector Smart Object1</title>
<g>
	<g>
		<path class="st0" d="M-173.3,56.9h33c1.4,0,2.5,1.1,2.5,2.5v33c0,1.4-1.1,2.5-2.5,2.5h-33c-1.4,0-2.5-1.1-2.5-2.5v-33
			C-175.9,58-174.8,56.9-173.3,56.9z"/>
		<path class="st0" d="M-144.6,54.9L-144.6,54.9c0.4,0,0.8,0.3,0.8,0.8v1.5c0,0.4-0.3,0.8-0.8,0.8s-0.8-0.4-0.8-0.9v-1.4
			C-145.4,55.2-145.1,54.9-144.6,54.9z"/>
		<path class="st0" d="M-148.2,54.9L-148.2,54.9c0.6,0,0.8,0.3,0.8,0.8v1.5c0,0.4-0.3,0.8-0.8,0.8s-0.8-0.3-0.8-0.8v-1.5
			C-148.9,55.2-148.6,54.9-148.2,54.9z"/>
		<path class="st0" d="M-151.6,54.9L-151.6,54.9c0.4,0,0.8,0.3,0.8,0.8v1.5c0,0.4-0.3,0.8-0.8,0.8s-0.8-0.4-0.8-0.9v-1.4
			C-152.4,55.2-152.1,54.9-151.6,54.9z"/>
		<path class="st0" d="M-155.2,54.9L-155.2,54.9c0.6,0,0.8,0.3,0.8,0.8v1.5c0,0.4-0.3,0.8-0.8,0.8s-0.8-0.3-0.8-0.8v-1.5
			C-155.9,55.2-155.6,54.9-155.2,54.9z"/>
		<path class="st0" d="M-158.6,54.9L-158.6,54.9c0.4,0,0.8,0.3,0.8,0.8v1.5c0,0.4-0.3,0.8-0.8,0.8s-0.8-0.4-0.8-0.9v-1.4
			C-159.4,55.2-159.1,54.9-158.6,54.9z"/>
		<path class="st0" d="M-162.2,54.9L-162.2,54.9c0.6,0,0.8,0.3,0.8,0.8v1.5c0,0.4-0.3,0.8-0.8,0.8s-0.8-0.3-0.8-0.8v-1.5
			C-162.9,55.2-162.6,54.9-162.2,54.9z"/>
		<path class="st0" d="M-165.5,54.9L-165.5,54.9c0.4,0,0.8,0.3,0.8,0.8v1.5c0,0.4-0.3,0.8-0.8,0.8s-0.8-0.4-0.8-0.9v-1.4
			C-166.3,55.2-166,54.9-165.5,54.9z"/>
		<path class="st0" d="M-169.2,54.9L-169.2,54.9c0.5,0,0.8,0.3,0.8,0.8v1.5c0,0.4-0.3,0.8-0.8,0.8s-0.6-0.4-0.6-0.9v-1.4
			C-169.8,55.2-169.5,54.9-169.2,54.9z"/>
		<path class="st0" d="M-144.6,93.9L-144.6,93.9c0.4,0,0.8,0.3,0.8,0.8v1.5c0,0.4-0.3,0.8-0.8,0.8s-0.8-0.4-0.8-0.9v-1.5
			C-145.4,94.2-145.1,93.9-144.6,93.9z"/>
		<path class="st0" d="M-148.2,93.9L-148.2,93.9c0.4,0,0.8,0.3,0.8,0.8v1.5c0,0.4-0.3,0.8-0.8,0.8s-0.8-0.3-0.8-0.8v-1.5
			C-148.9,94.2-148.6,93.9-148.2,93.9z"/>
		<path class="st0" d="M-151.6,93.9L-151.6,93.9c0.4,0,0.8,0.3,0.8,0.8v1.5c0,0.4-0.3,0.8-0.8,0.8s-0.8-0.4-0.8-0.9v-1.5
			C-152.4,94.2-152.1,93.9-151.6,93.9z"/>
		<path class="st0" d="M-155.2,93.9L-155.2,93.9c0.4,0,0.8,0.3,0.8,0.8v1.5c0,0.4-0.3,0.8-0.8,0.8s-0.8-0.3-0.8-0.8v-1.5
			C-155.9,94.2-155.6,93.9-155.2,93.9z"/>
		<path class="st0" d="M-158.6,93.9L-158.6,93.9c0.4,0,0.8,0.3,0.8,0.8v1.5c0,0.4-0.3,0.8-0.8,0.8s-0.8-0.4-0.8-0.9v-1.5
			C-159.4,94.2-159.1,93.9-158.6,93.9z"/>
		<path class="st0" d="M-162.2,93.9L-162.2,93.9c0.4,0,0.8,0.3,0.8,0.8v1.5c0,0.4-0.3,0.8-0.8,0.8s-0.8-0.3-0.8-0.8v-1.5
			C-162.9,94.2-162.6,93.9-162.2,93.9z"/>
		<path class="st0" d="M-165.5,93.9L-165.5,93.9c0.4,0,0.8,0.3,0.8,0.8v1.5c0,0.4-0.3,0.8-0.8,0.8s-0.8-0.4-0.8-0.9v-1.5
			C-166.3,94.2-166,93.9-165.5,93.9z"/>
		<path class="st0" d="M-169.2,93.9L-169.2,93.9c0.4,0,0.8,0.3,0.8,0.8v1.5c0,0.4-0.3,0.8-0.8,0.8s-0.8-0.3-0.8-0.8v-1.5
			C-169.8,94.2-169.5,93.9-169.2,93.9z"/>
		<path class="st0" d="M-135.9,63.7L-135.9,63.7c0,0.4-0.3,0.8-0.8,0.8h-1.5c-0.4,0-0.8-0.3-0.8-0.8c0-0.5,0.3-0.8,0.8-0.8h1.5
			C-136.2,62.9-135.9,63.2-135.9,63.7z"/>
		<path class="st0" d="M-135.9,67.1L-135.9,67.1c0,0.4-0.3,0.8-0.8,0.8h-1.5c-0.4,0-0.8-0.3-0.8-0.8s0.3-0.8,0.8-0.8h1.5
			C-136.2,66.4-135.9,66.7-135.9,67.1z"/>
		<path class="st0" d="M-135.9,70.7L-135.9,70.7c0,0.4-0.3,0.8-0.8,0.8h-1.5c-0.4,0-0.8-0.3-0.8-0.8s0.3-0.8,0.8-0.8h1.5
			C-136.2,69.9-135.9,70.2-135.9,70.7z"/>
		<path class="st0" d="M-135.9,74.1L-135.9,74.1c0,0.4-0.3,0.8-0.8,0.8h-1.5c-0.4,0-0.8-0.3-0.8-0.8s0.3-0.8,0.8-0.8h1.5
			C-136.2,73.4-135.9,73.7-135.9,74.1z"/>
		<path class="st0" d="M-135.9,77.7L-135.9,77.7c0,0.4-0.3,0.8-0.8,0.8h-1.5c-0.4,0-0.8-0.3-0.8-0.8s0.3-0.8,0.8-0.8h1.5
			C-136.2,76.9-135.9,77.2-135.9,77.7z"/>
		<path class="st0" d="M-135.9,81.1L-135.9,81.1c0,0.4-0.3,0.8-0.8,0.8h-1.5c-0.4,0-0.8-0.3-0.8-0.8s0.3-0.8,0.8-0.8h1.5
			C-136.2,80.4-135.9,80.7-135.9,81.1z"/>
		<path class="st0" d="M-135.9,84.7L-135.9,84.7c0,0.4-0.3,0.8-0.8,0.8h-1.5c-0.4,0-0.8-0.3-0.8-0.8s0.3-0.8,0.8-0.8h1.5
			C-136.2,83.9-135.9,84.2-135.9,84.7z"/>
		<path class="st0" d="M-135.9,88.1L-135.9,88.1c0,0.4-0.3,0.8-0.8,0.8h-1.5c-0.4,0-0.8-0.3-0.8-0.8s0.3-0.8,0.8-0.8h1.5
			C-136.2,87.4-135.9,87.7-135.9,88.1z"/>
		<path class="st0" d="M-174.8,63.7L-174.8,63.7c0,0.4-0.3,0.8-0.8,0.8h-1.6c-0.4,0-0.8-0.3-0.8-0.8c0-0.5,0.4-0.8,0.8-0.8h1.5
			C-175.2,62.9-174.8,63.2-174.8,63.7z"/>
		<path class="st0" d="M-174.8,67.1L-174.8,67.1c0,0.4-0.3,0.8-0.8,0.8h-1.6c-0.4,0-0.8-0.3-0.8-0.8s0.3-0.8,0.8-0.8h1.5
			C-175.2,66.4-174.8,66.7-174.8,67.1z"/>
		<path class="st0" d="M-174.8,70.7L-174.8,70.7c0,0.4-0.3,0.8-0.8,0.8h-1.6c-0.4,0-0.8-0.3-0.8-0.8s0.4-0.8,0.8-0.8h1.5
			C-175.2,69.9-174.8,70.2-174.8,70.7z"/>
		<path class="st0" d="M-174.8,74.1L-174.8,74.1c0,0.4-0.3,0.8-0.8,0.8h-1.6c-0.4,0-0.8-0.3-0.8-0.8s0.3-0.8,0.8-0.8h1.5
			C-175.2,73.4-174.8,73.7-174.8,74.1z"/>
		<path class="st0" d="M-174.8,77.7L-174.8,77.7c0,0.4-0.3,0.8-0.8,0.8h-1.6c-0.4,0-0.8-0.3-0.8-0.8s0.4-0.8,0.8-0.8h1.5
			C-175.2,76.9-174.8,77.2-174.8,77.7z"/>
		<path class="st0" d="M-174.8,81.1L-174.8,81.1c0,0.4-0.3,0.8-0.8,0.8h-1.6c-0.4,0-0.8-0.3-0.8-0.8s0.3-0.8,0.8-0.8h1.5
			C-175.2,80.4-174.8,80.7-174.8,81.1z"/>
		<path class="st0" d="M-174.8,84.7L-174.8,84.7c0,0.4-0.3,0.8-0.8,0.8h-1.6c-0.4,0-0.8-0.3-0.8-0.8s0.4-0.8,0.8-0.8h1.5
			C-175.2,83.9-174.8,84.2-174.8,84.7z"/>
		<path class="st0" d="M-174.8,88.1L-174.8,88.1c0,0.4-0.3,0.8-0.8,0.8h-1.6c-0.4,0-0.8-0.3-0.8-0.8s0.3-0.8,0.8-0.8h1.5
			C-175.2,87.4-174.8,87.7-174.8,88.1z"/>
	</g>
	<g>
		<path class="st1" d="M-162.2,81.4c-0.7,0.3-2.1,0.7-3.7,0.7c-1.8,0-3.3-0.5-4.5-1.6c-1-1-1.7-2.6-1.7-4.5c0-3.6,2.5-6.3,6.6-6.3
			c1.4,0,2.5,0.3,3,0.6l-0.4,1.3c-0.6-0.3-1.5-0.5-2.7-0.5c-3,0-4.9,1.8-4.9,4.9c0,3.1,1.9,4.9,4.7,4.9c1,0,1.7-0.1,2.1-0.3v-3.6
			h-2.5v-1.3h4V81.4z"/>
		<path class="st1" d="M-159.8,69.9c0.8-0.1,1.7-0.2,3-0.2c1.5,0,2.7,0.4,3.4,1c0.7,0.6,1.1,1.5,1.1,2.5c0,1.1-0.3,2-0.9,2.6
			c-0.8,0.9-2.2,1.3-3.7,1.3c-0.5,0-0.9,0-1.3-0.1v4.9h-1.6V69.9z M-158.2,75.8c0.3,0.1,0.8,0.1,1.3,0.1c1.9,0,3-0.9,3-2.6
			c0-1.6-1.1-2.4-2.9-2.4c-0.7,0-1.2,0.1-1.5,0.1V75.8z"/>
		<path class="st1" d="M-148.7,69.8v7.2c0,2.7,1.2,3.9,2.8,3.9c1.8,0,3-1.2,3-3.9v-7.2h1.6v7.1c0,3.7-2,5.3-4.6,5.3
			c-2.5,0-4.4-1.4-4.4-5.2v-7.1H-148.7z"/>
	</g>
</g>
</svg>
