<?xml version="1.0" encoding="utf-8"?>
<!-- Generator: Adobe Illustrator 19.0.0, SVG Export Plug-In . SVG Version: 6.00 Build 0)  -->
<svg version="1.1" id="Layer_1" xmlns="http://www.w3.org/2000/svg" xmlns:xlink="http://www.w3.org/1999/xlink" x="0px" y="0px"
	 viewBox="-168 48 62 56" style="enable-background:new -168 48 62 56;" xml:space="preserve">
<style type="text/css">
	.st0{fill:#9B9B9B;}
</style>
<title>a</title>
<g>
	<path class="st0" d="M-111,70.5v11c2.2,0,4-1.8,4-4v-3C-107,72.3-108.8,70.5-111,70.5z"/>
	<path class="st0" d="M-117,63.5h-46c-2.2,0-4,1.8-4,4v17c0,2.2,1.8,4,4,4h46c2.2,0,4-1.8,4-4v-17C-113,65.3-114.8,63.5-117,63.5z
		 M-140,85.5l1-8h-4l5-11l-1,8h4L-140,85.5z"/>
</g>
</svg>
