<?xml version="1.0" encoding="utf-8"?>
<!-- Generator: Adobe Illustrator 19.0.0, SVG Export Plug-In . SVG Version: 6.00 Build 0)  -->
<svg version="1.1" id="Layer_1" xmlns="http://www.w3.org/2000/svg" xmlns:xlink="http://www.w3.org/1999/xlink" x="0px" y="0px"
	 viewBox="-178 54.9 42.1 42.1" style="enable-background:new -178 54.9 42.1 42.1;" xml:space="preserve">
<style type="text/css">
	.st0{fill:#9B9B9B;}
	.st1{fill:#FFFFFF;}
</style>
<title>Vector Smart Object1</title>
<g>
	<g>
		<path class="st0" d="M-173.3,56.9h33c1.4,0,2.5,1.1,2.5,2.5v33c0,1.4-1.1,2.5-2.5,2.5h-33c-1.4,0-2.5-1.1-2.5-2.5v-33
			C-175.9,58-174.8,56.9-173.3,56.9z"/>
		<path class="st0" d="M-144.6,54.9L-144.6,54.9c0.4,0,0.8,0.3,0.8,0.8v1.5c0,0.4-0.3,0.8-0.8,0.8s-0.8-0.4-0.8-0.9v-1.4
			C-145.4,55.2-145.1,54.9-144.6,54.9z"/>
		<path class="st0" d="M-148.2,54.9L-148.2,54.9c0.6,0,0.8,0.3,0.8,0.8v1.5c0,0.4-0.3,0.8-0.8,0.8s-0.8-0.3-0.8-0.8v-1.5
			C-148.9,55.2-148.6,54.9-148.2,54.9z"/>
		<path class="st0" d="M-151.6,54.9L-151.6,54.9c0.4,0,0.8,0.3,0.8,0.8v1.5c0,0.4-0.3,0.8-0.8,0.8s-0.8-0.4-0.8-0.9v-1.4
			C-152.4,55.2-152.1,54.9-151.6,54.9z"/>
		<path class="st0" d="M-155.2,54.9L-155.2,54.9c0.6,0,0.8,0.3,0.8,0.8v1.5c0,0.4-0.3,0.8-0.8,0.8s-0.8-0.3-0.8-0.8v-1.5
			C-155.9,55.2-155.6,54.9-155.2,54.9z"/>
		<path class="st0" d="M-158.6,54.9L-158.6,54.9c0.4,0,0.8,0.3,0.8,0.8v1.5c0,0.4-0.3,0.8-0.8,0.8s-0.8-0.4-0.8-0.9v-1.4
			C-159.4,55.2-159.1,54.9-158.6,54.9z"/>
		<path class="st0" d="M-162.2,54.9L-162.2,54.9c0.6,0,0.8,0.3,0.8,0.8v1.5c0,0.4-0.3,0.8-0.8,0.8s-0.8-0.3-0.8-0.8v-1.5
			C-162.9,55.2-162.6,54.9-162.2,54.9z"/>
		<path class="st0" d="M-165.5,54.9L-165.5,54.9c0.4,0,0.8,0.3,0.8,0.8v1.5c0,0.4-0.3,0.8-0.8,0.8s-0.8-0.4-0.8-0.9v-1.4
			C-166.3,55.2-166,54.9-165.5,54.9z"/>
		<path class="st0" d="M-169.2,54.9L-169.2,54.9c0.5,0,0.8,0.3,0.8,0.8v1.5c0,0.4-0.3,0.8-0.8,0.8s-0.6-0.4-0.6-0.9v-1.4
			C-169.8,55.2-169.5,54.9-169.2,54.9z"/>
		<path class="st0" d="M-144.6,93.9L-144.6,93.9c0.4,0,0.8,0.3,0.8,0.8v1.5c0,0.4-0.3,0.8-0.8,0.8s-0.8-0.4-0.8-0.9v-1.5
			C-145.4,94.2-145.1,93.9-144.6,93.9z"/>
		<path class="st0" d="M-148.2,93.9L-148.2,93.9c0.4,0,0.8,0.3,0.8,0.8v1.5c0,0.4-0.3,0.8-0.8,0.8s-0.8-0.3-0.8-0.8v-1.5
			C-148.9,94.2-148.6,93.9-148.2,93.9z"/>
		<path class="st0" d="M-151.6,93.9L-151.6,93.9c0.4,0,0.8,0.3,0.8,0.8v1.5c0,0.4-0.3,0.8-0.8,0.8s-0.8-0.4-0.8-0.9v-1.5
			C-152.4,94.2-152.1,93.9-151.6,93.9z"/>
		<path class="st0" d="M-155.2,93.9L-155.2,93.9c0.4,0,0.8,0.3,0.8,0.8v1.5c0,0.4-0.3,0.8-0.8,0.8s-0.8-0.3-0.8-0.8v-1.5
			C-155.9,94.2-155.6,93.9-155.2,93.9z"/>
		<path class="st0" d="M-158.6,93.9L-158.6,93.9c0.4,0,0.8,0.3,0.8,0.8v1.5c0,0.4-0.3,0.8-0.8,0.8s-0.8-0.4-0.8-0.9v-1.5
			C-159.4,94.2-159.1,93.9-158.6,93.9z"/>
		<path class="st0" d="M-162.2,93.9L-162.2,93.9c0.4,0,0.8,0.3,0.8,0.8v1.5c0,0.4-0.3,0.8-0.8,0.8s-0.8-0.3-0.8-0.8v-1.5
			C-162.9,94.2-162.6,93.9-162.2,93.9z"/>
		<path class="st0" d="M-165.5,93.9L-165.5,93.9c0.4,0,0.8,0.3,0.8,0.8v1.5c0,0.4-0.3,0.8-0.8,0.8s-0.8-0.4-0.8-0.9v-1.5
			C-166.3,94.2-166,93.9-165.5,93.9z"/>
		<path class="st0" d="M-169.2,93.9L-169.2,93.9c0.4,0,0.8,0.3,0.8,0.8v1.5c0,0.4-0.3,0.8-0.8,0.8s-0.8-0.3-0.8-0.8v-1.5
			C-169.8,94.2-169.5,93.9-169.2,93.9z"/>
		<path class="st0" d="M-135.9,63.7L-135.9,63.7c0,0.4-0.3,0.8-0.8,0.8h-1.5c-0.4,0-0.8-0.3-0.8-0.8s0.3-0.8,0.8-0.8h1.5
			C-136.2,62.9-135.9,63.2-135.9,63.7z"/>
		<path class="st0" d="M-135.9,67.1L-135.9,67.1c0,0.4-0.3,0.8-0.8,0.8h-1.5c-0.4,0-0.8-0.3-0.8-0.8s0.3-0.8,0.8-0.8h1.5
			C-136.2,66.4-135.9,66.7-135.9,67.1z"/>
		<path class="st0" d="M-135.9,70.7L-135.9,70.7c0,0.4-0.3,0.8-0.8,0.8h-1.5c-0.4,0-0.8-0.3-0.8-0.8s0.3-0.8,0.8-0.8h1.5
			C-136.2,69.9-135.9,70.2-135.9,70.7z"/>
		<path class="st0" d="M-135.9,74.1L-135.9,74.1c0,0.4-0.3,0.8-0.8,0.8h-1.5c-0.4,0-0.8-0.3-0.8-0.8s0.3-0.8,0.8-0.8h1.5
			C-136.2,73.4-135.9,73.7-135.9,74.1z"/>
		<path class="st0" d="M-135.9,77.7L-135.9,77.7c0,0.4-0.3,0.8-0.8,0.8h-1.5c-0.4,0-0.8-0.3-0.8-0.8s0.3-0.8,0.8-0.8h1.5
			C-136.2,76.9-135.9,77.2-135.9,77.7z"/>
		<path class="st0" d="M-135.9,81.1L-135.9,81.1c0,0.4-0.3,0.8-0.8,0.8h-1.5c-0.4,0-0.8-0.3-0.8-0.8s0.3-0.8,0.8-0.8h1.5
			C-136.2,80.4-135.9,80.7-135.9,81.1z"/>
		<path class="st0" d="M-135.9,84.7L-135.9,84.7c0,0.4-0.3,0.8-0.8,0.8h-1.5c-0.4,0-0.8-0.3-0.8-0.8s0.3-0.8,0.8-0.8h1.5
			C-136.2,83.9-135.9,84.2-135.9,84.7z"/>
		<path class="st0" d="M-135.9,88.1L-135.9,88.1c0,0.4-0.3,0.8-0.8,0.8h-1.5c-0.4,0-0.8-0.3-0.8-0.8s0.3-0.8,0.8-0.8h1.5
			C-136.2,87.4-135.9,87.7-135.9,88.1z"/>
		<path class="st0" d="M-174.8,63.7L-174.8,63.7c0,0.4-0.3,0.8-0.8,0.8h-1.6c-0.4,0-0.8-0.3-0.8-0.8s0.4-0.8,0.8-0.8h1.5
			C-175.2,62.9-174.8,63.2-174.8,63.7z"/>
		<path class="st0" d="M-174.8,67.1L-174.8,67.1c0,0.4-0.3,0.8-0.8,0.8h-1.6c-0.4,0-0.8-0.3-0.8-0.8s0.3-0.8,0.8-0.8h1.5
			C-175.2,66.4-174.8,66.7-174.8,67.1z"/>
		<path class="st0" d="M-174.8,70.7L-174.8,70.7c0,0.4-0.3,0.8-0.8,0.8h-1.6c-0.4,0-0.8-0.3-0.8-0.8s0.4-0.8,0.8-0.8h1.5
			C-175.2,69.9-174.8,70.2-174.8,70.7z"/>
		<path class="st0" d="M-174.8,74.1L-174.8,74.1c0,0.4-0.3,0.8-0.8,0.8h-1.6c-0.4,0-0.8-0.3-0.8-0.8s0.3-0.8,0.8-0.8h1.5
			C-175.2,73.4-174.8,73.7-174.8,74.1z"/>
		<path class="st0" d="M-174.8,77.7L-174.8,77.7c0,0.4-0.3,0.8-0.8,0.8h-1.6c-0.4,0-0.8-0.3-0.8-0.8s0.4-0.8,0.8-0.8h1.5
			C-175.2,76.9-174.8,77.2-174.8,77.7z"/>
		<path class="st0" d="M-174.8,81.1L-174.8,81.1c0,0.4-0.3,0.8-0.8,0.8h-1.6c-0.4,0-0.8-0.3-0.8-0.8s0.3-0.8,0.8-0.8h1.5
			C-175.2,80.4-174.8,80.7-174.8,81.1z"/>
		<path class="st0" d="M-174.8,84.7L-174.8,84.7c0,0.4-0.3,0.8-0.8,0.8h-1.6c-0.4,0-0.8-0.3-0.8-0.8s0.4-0.8,0.8-0.8h1.5
			C-175.2,83.9-174.8,84.2-174.8,84.7z"/>
		<path class="st0" d="M-174.8,88.1L-174.8,88.1c0,0.4-0.3,0.8-0.8,0.8h-1.6c-0.4,0-0.8-0.3-0.8-0.8s0.3-0.8,0.8-0.8h1.5
			C-175.2,87.4-174.8,87.7-174.8,88.1z"/>
	</g>
	<g>
		<path class="st1" d="M-173.1,69.9c0.8-0.2,1.9-0.3,3-0.3c1.7,0,2.8,0.3,3.5,1c0.6,0.5,1,1.4,1,2.3c0,1.6-1,2.7-2.3,3.1v0.1
			c0.9,0.3,1.5,1.2,1.8,2.4c0.4,1.7,0.7,2.9,0.9,3.3h-1.6c-0.2-0.3-0.5-1.4-0.8-2.9c-0.4-1.7-1-2.3-2.4-2.4h-1.5v5.3h-1.6V69.9z
			 M-171.5,75.5h1.6c1.7,0,2.7-0.9,2.7-2.3c0-1.6-1.1-2.3-2.8-2.3c-0.8,0-1.3,0.1-1.5,0.1V75.5z"/>
		<path class="st1" d="M-161.4,78.1l-1.3,3.8h-1.6l4.1-12.1h1.9l4.1,12.1h-1.7l-1.3-3.8H-161.4z M-157.4,76.9l-1.2-3.5
			c-0.3-0.8-0.5-1.5-0.6-2.2h0c-0.2,0.7-0.4,1.5-0.6,2.2l-1.2,3.5H-157.4z"/>
		<path class="st1" d="M-142.2,76.6c-0.1-1.7-0.2-3.7-0.2-5.2h-0.1c-0.4,1.4-0.9,2.9-1.5,4.6l-2.1,5.9h-1.2l-2-5.8
			c-0.6-1.7-1.1-3.3-1.4-4.7h0c0,1.5-0.1,3.5-0.2,5.4l-0.3,5.2h-1.5l0.8-12.1h2l2.1,5.9c0.5,1.5,0.9,2.8,1.2,4.1h0.1
			c0.3-1.2,0.7-2.6,1.3-4.1l2.2-5.9h2l0.8,12.1h-1.5L-142.2,76.6z"/>
	</g>
</g>
</svg>
