<?xml version="1.0" encoding="utf-8"?>
<!-- Generator: Adobe Illustrator 19.0.0, SVG Export Plug-In . SVG Version: 6.00 Build 0)  -->
<svg version="1.1" id="Layer_1" xmlns="http://www.w3.org/2000/svg" xmlns:xlink="http://www.w3.org/1999/xlink" x="0px" y="0px"
	 viewBox="-174 48 50 56" style="enable-background:new -174 48 50 56;" xml:space="preserve">
<style type="text/css">
	.st0{fill:#9B9B9B;}
	.st1{fill:none;stroke:#9B9B9B;stroke-width:1.838;stroke-linecap:round;stroke-linejoin:round;}
</style>
<title>Vector Smart Object21</title>
<g>
	<path id="_Path_" class="st0" d="M-162.7,68l-7.3,0c-1.1,0-2,0.9-2,2v11c0,1.1,0.9,2,2,2h7.3c0.5,0,0.9,0.2,1.3,0.5l9.8,8.2
		c0.4,0.4,1.1,0.3,1.4-0.1c0.2-0.2,0.2-0.4,0.2-0.6V60.1c0-0.6-0.4-1-1-1c-0.2,0-0.5,0.1-0.6,0.2l-9.8,8.2
		C-161.8,67.8-162.3,68-162.7,68z"/>
	<path id="_Path_2" class="st1" d="M-134.3,61c8,8,8,21.1,0,29.1c0,0,0,0,0,0"/>
	<path id="_Path_3" class="st1" d="M-138.6,64.8c5.9,5.9,5.9,15.5,0,21.5c0,0,0,0,0,0"/>
	<path id="_Path_4" class="st1" d="M-142.7,69.4c3.4,3.4,3.4,8.9,0,12.3c0,0,0,0,0,0"/>
</g>
</svg>
