<?xml version="1.0" encoding="utf-8"?>
<!-- Generator: Adobe Illustrator 19.0.0, SVG Export Plug-In . SVG Version: 6.00 Build 0)  -->
<svg version="1.1" id="Capa_1" xmlns="http://www.w3.org/2000/svg" xmlns:xlink="http://www.w3.org/1999/xlink" x="0px" y="0px"
	 viewBox="564.5 58.8 46.3 32.5" style="enable-background:new 564.5 58.8 46.3 32.5;" xml:space="preserve">
<style type="text/css">
	.st0{fill:#9B9B9B;}
	.st1{fill:#FFFFFF;}
</style>
<g>
	<g>
		<path class="st0" d="M590.5,65.8c-0.1-0.3-0.2-0.5-0.4-0.7c-0.2-0.2-0.5-0.4-0.9-0.5c-0.4-0.1-1-0.2-1.7-0.2
			c-0.7,0-1.2,0.1-1.6,0.2s-0.7,0.3-0.9,0.5c-0.2,0.2-0.3,0.5-0.4,0.8c-0.1,0.3-0.1,0.8-0.1,1.5v0.8h6v-1.4
			C590.6,66.4,590.6,66.1,590.5,65.8z"/>
		<path class="st0" d="M567.1,91.2l41,0c1.5,0,2.7-1.2,2.7-2.7V61.4c0-1.5-1.2-2.7-2.7-2.7h-41c-1.5,0-2.7,1.2-2.7,2.7v27.1
			C564.5,90,565.6,91.2,567.1,91.2z M608.2,63c0,0.7-0.6,1.3-1.3,1.3s-1.3-0.6-1.3-1.3c0-0.7,0.6-1.3,1.3-1.3S608.2,62.3,608.2,63z
			 M567.2,63c0-0.7,0.6-1.3,1.3-1.3c0.7,0,1.3,0.6,1.3,1.3c0,0.7-0.6,1.3-1.3,1.3C567.8,64.3,567.2,63.7,567.2,63z M567.2,87.4
			c0-0.7,0.6-1.3,1.3-1.3c0.7,0,1.3,0.6,1.3,1.3c0,0.7-0.6,1.3-1.3,1.3C567.8,88.6,567.2,88.1,567.2,87.4z M605.7,87.4
			c0-0.7,0.6-1.3,1.3-1.3s1.3,0.6,1.3,1.3c0,0.7-0.6,1.3-1.3,1.3S605.7,88.1,605.7,87.4z"/>
	</g>
	<g>
	</g>
	<g>
	</g>
	<g>
		<path class="st1" d="M574.7,78.5c0.7,0.4,1.7,0.8,2.8,0.8c1.6,0,2.5-0.8,2.5-2.1c0-1.1-0.6-1.8-2.3-2.4c-2-0.7-3.2-1.7-3.2-3.4
			c0-1.9,1.6-3.3,3.9-3.3c1.2,0,2.1,0.3,2.7,0.6l-0.4,1.3c-0.4-0.2-1.2-0.6-2.3-0.6c-1.7,0-2.3,1-2.3,1.8c0,1.1,0.7,1.7,2.4,2.3
			c2.1,0.8,3.1,1.8,3.1,3.6c0,1.9-1.4,3.5-4.2,3.5c-1.2,0-2.4-0.3-3.1-0.8L574.7,78.5z"/>
		<path class="st1" d="M583.5,78.5c0.7,0.4,1.7,0.8,2.8,0.8c1.6,0,2.5-0.8,2.5-2.1c0-1.1-0.6-1.8-2.3-2.4c-2-0.7-3.2-1.7-3.2-3.4
			c0-1.9,1.6-3.3,3.9-3.3c1.2,0,2.1,0.3,2.7,0.6l-0.4,1.3c-0.4-0.2-1.2-0.6-2.3-0.6c-1.7,0-2.3,1-2.3,1.8c0,1.1,0.7,1.7,2.4,2.3
			c2.1,0.8,3.1,1.8,3.1,3.6c0,1.9-1.4,3.5-4.2,3.5c-1.2,0-2.4-0.3-3.1-0.8L583.5,78.5z"/>
		<path class="st1" d="M592.6,68.4c1-0.1,2.1-0.3,3.3-0.3c2.3,0,3.9,0.5,4.9,1.5c1.1,1,1.7,2.4,1.7,4.4c0,2-0.6,3.6-1.7,4.7
			c-1.1,1.1-3,1.7-5.4,1.7c-1.1,0-2.1-0.1-2.8-0.1V68.4z M594.2,79.1c0.4,0.1,1,0.1,1.6,0.1c3.3,0,5.2-1.9,5.2-5.1
			c0-2.9-1.6-4.7-4.9-4.7c-0.8,0-1.4,0.1-1.8,0.2V79.1z"/>
	</g>
</g>
</svg>
