<svg xmlns="http://www.w3.org/2000/svg" viewBox="0 0 51.01 51.01"><defs><style>.a{fill:none;stroke:#9b9b9b;stroke-linecap:round;stroke-linejoin:round;stroke-width:2.01px;}</style></defs><title>touch_id_icon</title><path class="a" d="M2,18.58a24.65,24.65,0,0,0,.26,14.67" transform="translate(0 0)"/><path class="a" d="M25.23,1A24.51,24.51,0,0,0,3.46,14.79" transform="translate(0 0)"/><path class="a" d="M50,24.8A24.52,24.52,0,0,0,29.3,1.29" transform="translate(0 0)"/><path class="a" d="M24.06,46.42c-.49,1.35-1,2.5-1.4,3.41" transform="translate(0 0)"/><path class="a" d="M25.5,25.5a38.54,38.54,0,0,1,.41,13.83c-.18,1.11-.4,2.17-.66,3.18" transform="translate(0 0)"/><path class="a" d="M30.18,37.93q-.08.7-.19,1.39A52.94,52.94,0,0,1,27.07,50" transform="translate(0 0)"/><path class="a" d="M18.44,49a34.63,34.63,0,0,0,3.25-9.61,38.4,38.4,0,0,0-.21-13.13,4.08,4.08,0,1,1,8-1.65,45.4,45.4,0,0,1,.94,9.29" transform="translate(0 0)"/><path class="a" d="M46.64,32.84c0,1.63,0,3.38-.09,5.22" transform="translate(0 0)"/><path class="a" d="M17.49,6.71a20.45,20.45,0,0,1,28.26,16,60.42,60.42,0,0,1,.71,6.06" transform="translate(0 0)"/><path class="a" d="M5,38.93a14.35,14.35,0,0,0,.62-2c.59-2.53.1-6.11-.26-8A20.45,20.45,0,0,1,13.94,8.67" transform="translate(0 0)"/><path class="a" d="M29.56,9.68A16.34,16.34,0,0,0,9.36,28a26.78,26.78,0,0,1,.22,9.42,19.91,19.91,0,0,1-1.71,5.11" transform="translate(0 0)"/><path class="a" d="M41.78,43.8q.22-1.27.39-2.62A64,64,0,0,0,41.65,23a16.35,16.35,0,0,0-8.3-11.87" transform="translate(0 0)"/><path class="a" d="M37.12,21.6A12.14,12.14,0,0,1,37.5,23a56.3,56.3,0,0,1,.83,15.53,56.32,56.32,0,0,1-1.56,8.7" transform="translate(0 0)"/><path class="a" d="M13.85,36.22a27.31,27.31,0,0,0-.36-8.33A12.25,12.25,0,0,1,35.17,18" transform="translate(0 0)"/><path class="a" d="M11.06,45.31a27.3,27.3,0,0,0,2-5.07" transform="translate(0 0)"/><path class="a" d="M22.69,17.83a8.18,8.18,0,0,1,10.81,6,49.71,49.71,0,0,1,.74,14.81,50.5,50.5,0,0,1-2.37,10.54" transform="translate(0 0)"/><path class="a" d="M14.64,47.47a28.78,28.78,0,0,0,3-8.7A37.18,37.18,0,0,0,17.46,27a7.74,7.74,0,0,1-.13-1.47,8.14,8.14,0,0,1,2-5.38" transform="translate(0 0)"/></svg>