<?xml version="1.0" encoding="utf-8"?>
<!-- Generator: Adobe Illustrator 20.1.0, SVG Export Plug-In . SVG Version: 6.00 Build 0)  -->
<svg version="1.1" id="Слой_1" xmlns="http://www.w3.org/2000/svg" xmlns:xlink="http://www.w3.org/1999/xlink" x="0px" y="0px"
	 viewBox="0 0 1000 1000" style="enable-background:new 0 0 1000 1000;" xml:space="preserve">
<style type="text/css">
	.st0{fill:#9B9B9B;}
</style>
<g>
	<path class="st0" d="M930.4,429.7C837,288.5,681.6,196.5,494.5,196.5c-180.8,0-332,86-426.3,219.2L10,355.2
		c109.8-147.1,281.5-241.5,484.5-241.5c209.8,0,386.3,100.7,495.5,256.4L930.4,429.7z M495.2,320.6c152.5,0,280.9,73.1,360.4,186.2
		l-43.4,43.3c-68-102.5-180.9-169.4-317-169.4c-131.5,0-241.5,62.4-310,159.2l-42.4-44C222.7,389.2,347.5,320.6,495.2,320.6z
		 M502,486.2c100.5,0,184.9,49,237.2,124.4l-42.8,43.2c-42-67.9-114.4-112.4-202-112.4c-80.6,0-148.3,37.9-191.2,96.9l-33.4-35
		C322.5,532,404.7,486.2,502,486.2z M501.5,637.9c68.5,0,124.1,55.6,124.1,124.1S570,886.3,501.5,886.3s-124.1-55.7-124.1-124.2
		C377.4,693.6,432.9,637.9,501.5,637.9z"/>
</g>
</svg>
